<svg xmlns="http://www.w3.org/2000/svg" viewBox="0 0 2074.03 1046.15"><defs><style>.a{fill:#8c593e;}.b{fill:#f9fefa;}.c{fill:#080307;}.d{fill:#a18e80;}.e{fill:#552100;}</style></defs><rect class="a" x="189.38" y="568.02" width="694.71" height="478.12"/><rect class="b" x="884.09" y="568.02" width="1020.26" height="478.12"/><rect class="c" x="24.56" y="528.52" width="2024.18" height="39.5"/><path class="d" d="M16.39,510.81C401.88,201.6,442.75,145.75,595.31,73.56,771,66.75,1315.9,45,1453.48,51.76c110.33,95.35,445.43,216.59,618.42,441.35,2.27,21.67,3.86,36.83-1.36,55.84C1031.2,547.59,890.9,550.32,2.77,543.51-6.77,523.07,11,517.34,16.39,510.81Z"/><rect class="d" x="719.27" width="100.8" height="100.8" rx="21.43"/><rect class="c" x="1136.09" y="697.43" width="123.96" height="123.96" rx="21.36"/><rect class="c" x="1593.78" y="697.43" width="123.96" height="123.96" rx="21.36"/><rect class="e" x="438.66" y="671.55" width="219.31" height="374.6"/></svg>