<svg id="fountain-svg" class="" xmlns="http://www.w3.org/2000/svg" xmlns:xlink="http://www.w3.org/1999/xlink" viewBox="0 0 1104.71 637"><defs>

  <style>.cls-1{opacity:0.5;}.cls-2{fill:none;stroke:#0EBEFF;stroke-linecap:round;stroke-linejoin:round;stroke-width:1.5px;}
  
  #pwater {
    stroke-dasharray: 20 12;
    stroke-dashoffset: 0;
  }
  
  .cls-2:nth-child(5n + 1) {
    stroke-dashoffset: 10;
  }
  .cls-2:nth-child(5n + 2) {
    stroke-dashoffset: 20;
  }
  .cls-2:nth-child(5n + 3) {
    stroke-dashoffset: 30;
  }
  .cls-2:nth-child(5n + 4) {
    stroke-dashoffset: 40;
  }
  
  
  </style></defs><g id="Layer_2" data-name="Layer 2"><image width="1104" height="637" xlink:href="/fountainWithoutWater.png"/></g>
  <g id="Layer_1" data-name="Layer 1"><g id="SvgGroup"><g id="pwater"><path class="cls-2" d="M851.38,506.73c12.65-48.59,39.8-171.64,7.08-282.92-14.83-50.42-35-74.66-49.16-88.27-38-36.39-82.34-43.7-96.46-45.83C694,86.87,627.14,76.81,586,119.85a104.68,104.68,0,0,0-23.67,40.72"/><path class="cls-2" d="M863.63,506.41c1.22-10.57,3.11-26.58,5.64-46.08,3.47-26.71,6.19-44.9,7-50.62,3.26-23.08,5.85-58.72,2.29-112.76,0,0-4.37-41-21.34-93.71a162.24,162.24,0,0,0-8.31-20.53s-12.74-28.81-42.21-49.62"/><path class="cls-2" d="M868.46,506.14s19.81-128,20-158.33-6.09-106.86-36-166.67S761.41,98.86,747.13,91.05s-97.72-15.81-137.91,4.57-51.05,65.9-51.05,65.9"/><path class="cls-2" d="M874.17,506.41s26.73-117,19.37-201.58S856.46,176,848.87,164.13"/><path class="cls-2" d="M881.41,513.9c.34-2,.84-5.15,1.45-8.93,13.89-87.06,20.84-130.59,18.55-180.84-1-22-2.52-51-13.71-87.37-5.45-17.68-13.85-44.95-33-71.62C821.21,118.57,770.46,92.67,744,89.7"/><path class="cls-2" d="M903.7,514.83s8.89-116.8,9.79-132.54.88-67.31-18.67-141.21S831.69,132.43,806.7,110.54C782.37,89.24,720.84,74,667.25,77s-74.09,29.14-74.09,29.14"/><path class="cls-2" d="M891.17,513.9s7.16-52.38,9.37-68.63,9.66-100.89,5.9-118.35"/><path class="cls-2" d="M946.2,485.63c1.17-32.27-2.69-109.44-13.36-165.88S913.41,241,879.32,177.9s-98.1-91.25-98.1-91.25C734,69.11,672.65,66.86,657.35,70.16c-81.16,17.51-102.1,89.14-102.1,89.14"/><path class="cls-2" d="M922.3,515.27s-1-25.08,1.78-80.6,3.62-83.43-8-153.72-64.88-137-73.71-144.57"/><path class="cls-2" d="M910.88,514.83c1.49-19.8,11.47-120.24,8.63-159.4a441.26,441.26,0,0,0-27.79-125.09"/><path class="cls-2" d="M926.56,514.83a1255.66,1255.66,0,0,0,6.63-145.69q-1.41-13.86-3.32-28.19a881.7,881.7,0,0,0-19.68-101.26"/><line class="cls-2" x1="937.26" y1="497.62" x2="939.38" y2="363.14"/><path class="cls-2" d="M923,329.72c.38-6-15.92-69.82-23.82-87"/><path class="cls-2" d="M1021.6,466.29a499.73,499.73,0,0,0-31-145.88c-9.65-25.57-36-93-91.28-153.45a350.09,350.09,0,0,0-79.82-65.44c-32.12-19-58-26.93-74.67-30.85-32.11-7.56-86.4-20.32-134.21,9.56-38.34,24-53.22,63.3-58.63,81.36"/><path class="cls-2" d="M1023.7,466.29s1.81-182.67-126.34-301.47"/><path class="cls-2" d="M1027.38,467.87S1045.67,248.7,830.3,103.68"/><path class="cls-2" d="M1030.17,466.29s21.59-150.74-114-289.1"/><path class="cls-2" d="M1037.41,467.24c17.69-153.69-41.65-296.07-153.59-363C816.45,63.87,747.08,61.08,707.1,63.25"/><path class="cls-2" d="M1034.37,466.29S1076.65,126.67,755.88,64"/><path class="cls-2" d="M1036.21,436s10.35-299.62-285.38-373.28"/><path class="cls-2" d="M1033.22,467.87s29.72-276.06-262.47-396.06"/><path class="cls-2" d="M250.37,476.76C268.27,191.81,363.5,99.12,463.7,94.29c15.69-.76,111.24-13.72,134.86,73.9"/><path class="cls-2" d="M222.56,476.76C200.76,313.69,247.71,168,349,108.38c12.35-7.27,115.73-68.09,194.27-18.72,36.14,22.72,52.15,59.42,59.07,80.05"/><path class="cls-2" d="M241.6,474.48a656.24,656.24,0,0,1,21.08-171.94c14.89-56.9,25.3-96.64,59.43-137.14,15.92-18.89,59-70,131.87-78.56,54.63-6.44,97.46,14.36,114.67,24"/><path class="cls-2" d="M246.17,474.22c2.55-42.71,8.88-114.93,26.42-185.9,6.39-25.9,13.58-48.78,26.41-74.18a314.73,314.73,0,0,1,41.4-62.2,184.24,184.24,0,0,1,52.14-42.57c47.23-25.77,93-23.37,112-21.24"/><path class="cls-2" d="M226.68,472.54c-1.27-14-2.6-33.76-2.6-57.49,0-47.25,0-97.93,20-155.11,10.11-29,31.34-89.79,88.22-132.89,29-22,60.53-34.24,75.36-39.34,15.2-5.24,32.48-11.2,55.53-12.5,34.22-1.93,63.56,7.39,85,17.69"/><path class="cls-2" d="M231.32,476.76c-1.23-19.92-2.19-47.06-1.15-79.24.88-26.82,1.74-53.35,6.86-82.85,5.23-30.17,15.36-88.52,58.12-144,13.33-17.32,37.2-43.9,75.84-67.48"/><path class="cls-2" d="M236,474.48a663.15,663.15,0,0,1,10.92-131c12.58-68.15,24-130.24,72.89-185.91,14.82-16.89,49-54.79,105.82-70.12,16.34-4.4,53.74-14,97.1,0a154.79,154.79,0,0,1,42.78,21.68"/><path class="cls-2" d="M232.46,445s-2.73-261.85,124.6-323.21"/><path class="cls-2" d="M42.75,395.24c7-41.06,35.06-174.06,145.41-251.75C240.73,106.48,302.1,89,329.6,81.14,399,61.36,445.67,62.72,460.27,63.43c43,2.1,85.08,4.15,116.8,35.59,23.59,23.39,31,52.67,33.68,69.55"/><path class="cls-2" d="M119.32,402.1C147.51,215.05,307,87.81,435.72,74.41"/><path class="cls-2" d="M112.84,402.1C121.6,274.86,262.94,65.33,471.32,70.51"/><path class="cls-2" d="M79.44,397.11C93.17,246.48,245.79,58.86,481.6,70.74"/><path class="cls-2" d="M56.46,397.11C71.27,277.32,162.46,156,289.22,100c39.24-17.33,115.89-36.9,187.21-29.49"/><path class="cls-2" d="M90.75,402.1c4.78-36.31,17-90.39,51-146.29C214.76,135.92,334.12,96,369.35,85.62"/><path class="cls-2" d="M98.37,402.1c16-141.34,127.5-253.22,203.32-285.12"/><path class="cls-2" d="M105.6,402.1c3.43-44.2,33.91-147.81,105-208.12"/><path class="cls-2" d="M84.65,402.1c12.45-107.69,74.92-184.39,104.08-221"/><path class="cls-2" d="M62.81,399.3c14-120.13,95.3-222,211.74-292.45"/><path class="cls-2" d="M69.92,397.11A365,365,0,0,1,101.16,293.9c22.27-46.93,49.12-77.32,64.51-94.47a435,435,0,0,1,53.54-50.34c13.41-10.62,28.78-22.8,51.35-34.74a277.78,277.78,0,0,1,70.17-25.68"/><path class="cls-2" d="M48.08,397.11C60,344.81,98,213.39,217.6,135.81a346,346,0,0,1,66.59-33.55"/><path class="cls-2" d="M55.07,369.86c14.6-114.9,110.35-208.64,169-248.28"/><path class="cls-2" d="M126.75,397.11a402.35,402.35,0,0,1,44-126.25c30.65-55.72,66.68-89.67,75.72-98,87-79.69,247.63-138.7,322.35-74.25,12.23,10.56,29.47,30.72,37.93,70.49"/></g></g></g></svg>