<?xml version="1.0" encoding="UTF-8"?>
<svg id="MainLayer" xmlns="http://www.w3.org/2000/svg" viewBox="0 0 60 60">
  <defs>
    <style>
      .cls-1 {
        fill: #f0ecdb;
      }

      .cls-2 {
        fill: #eee7d8;
      }

      .cls-3 {
        fill: #f1eedf;
      }

      .cls-4 {
        fill: #3d5270;
      }

      .cls-5 {
        fill: #f0efe9;
      }

      .cls-6 {
        fill: #fcf7ea;
      }

      .cls-7 {
        fill: #d8d8d8;
      }

      .cls-8 {
        fill: #f0e9dc;
      }

      .cls-9 {
        fill: #c18b1d;
      }

      .cls-10 {
        fill: #e8e3d0;
      }

      .cls-11 {
        fill: #41403a;
      }

      .cls-12 {
        fill: #f8f5e9;
      }

      .cls-13 {
        fill: #f3f2ec;
      }

      .cls-14 {
        fill: #c28c1a;
      }
    </style>
  </defs>
  <circle id="Back_Circle" data-name="Back Circle" class="cls-4" cx="30" cy="30" r="29"/>
  <g id="Dove">
    <g id="Legs">
      <path class="cls-14" d="M33.68,44.06c.31.14.88,1.53,1.65,2.03,1.06.7,2.79.43,3.26,1.51-1.45.35-3.17-.53-4.47-.47-.11,0-2.13,1.61-1.8.34.22-.85,2.24-1.19.53-3.43.2.07.66-.06.83.01Z"/>
      <path class="cls-14" d="M36.68,42.7c.09.59.3,1.01.49,1.3,1.24,1.91,3.62,1.55,3.82,1.53,0,.07-.02.27-.13.34-.38.22-.63.25-1.4.19-.82-.07-.97-.1-1.09-.13-.39-.12-.71-.26-.94-.37-.15.18-.3.31-.41.41-.13.11-.22.16-.34.17-.06,0-.15,0-.19-.05-.12-.15.33-.49.35-1.05,0-.14-.02-.26-.04-.34-.42-.68-.84-1.36-1.25-2.04.14.01.29.03,1.13.06Z"/>
    </g>
    <g id="Body">
      <path class="cls-1" d="M41.68,11.6c-.63,1.1.74-.37,1.09,0,.39.42-1.59,1.04-1.47,2,.16,1.21,2.73,2.94,1.58,5.41-1.1,2.37-4.42,1.22-6.21,1.57v-.27c.66-1.37,1.17-2.51,1.5-3.28,1.01-2.34,1.49-3.72,2.92-4.97.23-.2.44-.36.58-.46Z"/>
      <path class="cls-6" d="M49.5,15.13c-.12.16-.26.34-.44.52-.23.24-.45.42-.65.57-5.59,4.49-.22,10.58-2.39,16.31-1.56,4.12-4.38,4.44-6.95,6.89-.59.57-1.29,2.81-2.39,3.28-.22.1-.84-.09-1.09,0-.74.27-1.8.1-1.91,1.36-.17-.08-.62.07-.82,0-.37-.13-3.25-1.06-3.43-1.08-1.45-.16-2.02.99-2.5,0l-5.39-.86c-2.99,1.64-6.9,5.45-10.49,4.66.03-.26-.05-.57,0-.82.02-.12.27-.34.27-.55.16-.07.38-.06.82-.27,2.61-1.29,5.33-2.44,7.91-3.82h-4.23c-1.26,0-5.33.86-6.13,1.91-.3-.21-.7-.58-1.09-.55-.07-.26-.34-.98-.27-1.09.04-.07.45.06.55,0,3.19.09,6.37-1.85,9.45-2.16.88-.09,1.73.33,2.28.25,1.59-.22,2.93-.24,4.64-.55,4.67-.85,8.97-2.88,11.72-6.82,1.36-1.95,3.19-5.1,1.64-7.37.31,3.11-7.1,9.22-9.82,8.46-.05-.01-.27-.64-.74-.78-.62-.19-1.46.5-2,.12-1.04-.73.61-3-3.26-.71.86-2.64,3.74-3.8,5.18-6.01.1-.08.17-.2.27-.27,2.59-1.11,5.03-2.45,7.09-4.37.09-.09.17-.2.27-.27,1.34-.95.98-.8,1.09-.82,1.79-.35,5.11,1.08,6.21-1.3,1.14-2.47-1.43-4.2-1.58-5.41-.12-.96,1.86-1.58,1.47-2-.34-.37-1.72,1.1-1.09,0,3.44-1.8,8.22-1.29,7.81,3.53Z"/>
    </g>
    <g id="Wing">
      <path class="cls-8" d="M28.77,33.42c-.74,3.19-6.13,3.91-8.18,6.28-.54.07-1.4-.34-2.28-.25-3.08.31-6.26,2.25-9.45,2.16.35-.21,1.46-.66,1.91-.82,2.3-.83,4.92-1.36,7.36-1.64-.14-1.33-3.29-.18-4.63,0,1.96-.58,3.13-2.03,4.64-3.28.41-.34.77-.89,1.36-1.36,1.03-.82,2.15-1.79,3.27-2.46,3.87-2.3,2.21-.03,3.26.71.54.38,1.39-.31,2-.12.47.14.69.76.74.78Z"/>
      <path class="cls-12" d="M9.14,44.88c1.87-.3,3.78-1.72,5.73-1.91l-2.73,2.18c-.44.22-.65.2-.82.27-.26.12-.62.03-.82.41l.54.13c-.05.25.03.56,0,.82-.99-.22-2.5-.87-2.45-1.91.18-.02.37.03.55,0Z"/>
      <path class="cls-5" d="M18.14,35.87c-1.5,1.24-2.67,2.7-4.64,3.28-.32.04-.53.12-.82.27-.1.05-.17.2-.27.27-.68.31-1.73.42-1.64,1.09-.45.16-1.56.6-1.91.82-.1.06-.5-.07-.55,0-.07.11.21.83.27,1.09.39-.03.79.33,1.09.55-.33.44-.54,1.08-.55,1.64-.17.03-.37-.02-.55,0,.04-1.06.55-.72.55-1.23,0-.46-.37-.24-.55-.96-.21.02-3.51,1.43-1.88-.38,2.02-2.25,8.72-4.42,11.43-6.44ZM7.92,42.15v.27l.14-.14-.14-.14Z"/>
      <path class="cls-5" d="M27.96,26.05c-1.44,2.21-4.32,3.37-5.18,6.01-1.13.67-2.24,1.64-3.27,2.46,2.94-3.12,5.07-5.79,8.45-8.46Z"/>
      <path class="cls-5" d="M35.32,21.41c-2.06,1.92-4.5,3.26-7.09,4.37,2.31-1.74,4.49-3.11,7.09-4.37Z"/>
      <path class="cls-2" d="M36.95,32.32l-11.72,6.82c-1.71.31-3.05.33-4.64.55,2.05-2.37,7.44-3.09,8.18-6.28,2.72.76,10.13-5.35,9.82-8.46,1.55,2.27-.28,5.42-1.64,7.37Z"/>
      <path class="cls-3" d="M9.69,43.24c.8-1.06,4.87-1.91,6.13-1.91h4.23c-2.58,1.38-5.29,2.53-7.91,3.82l2.73-2.18c-1.94.19-3.86,1.6-5.73,1.91,0-.56.21-1.2.55-1.64Z"/>
      <path class="cls-10" d="M36.95,32.32c-2.76,3.94-7.06,5.98-11.72,6.82l11.72-6.82Z"/>
      <path class="cls-3" d="M11.32,45.43c0,.2-.25.43-.27.55l-.54-.13c.2-.38.56-.29.82-.41Z"/>
      <path class="cls-6" d="M13.5,39.15c1.35-.18,4.5-1.33,4.63,0-2.44.28-5.06.8-7.36,1.64-.09-.67.95-.78,1.64-1.09.09-.04.18-.2.27-.27.28-.15.49-.23.82-.27Z"/>
      <polygon class="cls-6" points="7.92 42.15 8.05 42.29 7.92 42.42 7.92 42.15"/>
    </g>
    <g id="Eye">
      <path class="cls-13" d="M46.22,14.31s.07.47-.02.51c-1.21.57-1.01-.47-1.07-.51h1.09Z"/>
      <path class="cls-13" d="M44.86,12.94v1.09c-.04-.05-.47.15-.56-.14-.37-1.2.51-.89.56-.95Z"/>
      <path class="cls-13" d="M45.13,12.67c.08-.06.24-1.44,1.49.01s-.07,1.27-.12,1.35c.07-.89-.46-1.44-1.36-1.36Z"/>
      <circle class="cls-11" cx="45.72" cy="13.49" r="1.01"/>
      <circle class="cls-7" cx="46" cy="13.17" r=".21"/>
    </g>
    <path class="cls-9" d="M49.52,14.39c-.11-.03-.28.01-.58.15-.24.11-.51.26-.73.34.14.26.53.69.67.95.63.28,1.02.38,1.65.66,0-.12,0-.29-.04-.49-.05-.22-.14-.37-.21-.51-.56-.98-.61-1.07-.75-1.1Z"/>
  </g>
</svg>