<?xml version="1.0" encoding="UTF-8"?>
<svg id="MainLayer" xmlns="http://www.w3.org/2000/svg" viewBox="0 0 60 60">
  <defs>
    <style>
      .cls-1 {
        fill: #f0ecdb;
      }

      .cls-2 {
        fill: #eee7d8;
      }

      .cls-3 {
        fill: #fff;
      }

      .cls-4 {
        fill: #3d5270;
      }

      .cls-5 {
        fill: #f0efe9;
      }

      .cls-6 {
        fill: #fcf7ea;
      }

      .cls-7 {
        fill: #d8d8d8;
      }

      .cls-8 {
        fill: #f0e9dc;
      }

      .cls-9 {
        fill: #c18b1d;
      }

      .cls-10 {
        fill: #e8e3d0;
      }

      .cls-11 {
        fill: #41403a;
      }

      .cls-12 {
        fill: #f3f2ec;
      }

      .cls-13 {
        fill: none;
        stroke: #1da9d1;
        stroke-miterlimit: 10;
      }
    </style>
  </defs>
  <circle id="Back_Circle" data-name="Back Circle" class="cls-4" cx="30" cy="30" r="29"/>
  <g id="Dove">
    <g id="Body">
      <path class="cls-1" d="M29.89,15.09c-1.07,1.88,1.27-.62,1.86,0,.67.72-2.71,1.78-2.5,3.41.27,2.06,4.64,5.01,2.7,9.22-1.87,4.04-7.54,2.08-10.58,2.67v-.47c1.13-2.34,1.99-4.27,2.56-5.59,1.73-3.99,2.55-6.34,4.98-8.48.4-.35.75-.61.99-.78Z"/>
      <path class="cls-6" d="M43.2,21.1c-.2.28-.45.58-.75.89-.39.4-.77.72-1.11.97-9.53,7.65-.37,18.03-4.07,27.79-2.66,7.02-7.47,7.57-11.84,11.74-1.01.96-2.19,4.79-4.07,5.6-.38.16-1.43-.16-1.86,0-1.27.47-3.06.17-3.25,2.33-.29-.13-1.05.12-1.39,0-.62-.23-5.55-1.8-5.85-1.84-2.47-.27-3.44,1.69-4.26.02l-9.18-1.46c-5.1,2.8-11.75,9.28-17.89,7.94.06-.44-.08-.98,0-1.4.04-.2.47-.58.46-.93.28-.13.65-.1,1.39-.47,4.46-2.2,9.08-4.16,13.48-6.51h-7.2c-2.15,0-9.08,1.46-10.46,3.26-.52-.36-1.2-.99-1.86-.93-.11-.44-.58-1.67-.46-1.86.07-.11.76.1.93,0,5.43.15,10.85-3.15,16.1-3.68,1.5-.15,2.96.56,3.88.43,2.71-.37,4.99-.4,7.9-.93,7.95-1.45,15.28-4.91,19.98-11.63,2.32-3.32,5.44-8.69,2.79-12.56.53,5.3-12.1,15.71-16.73,14.42-.09-.02-.46-1.08-1.26-1.33-1.05-.32-2.5.85-3.42.21-1.78-1.25,1.05-5.12-5.55-1.2,1.46-4.49,6.37-6.47,8.83-10.23.17-.13.29-.33.46-.47,4.41-1.89,8.57-4.18,12.08-7.44.16-.15.29-.34.46-.47,2.28-1.62,1.68-1.36,1.86-1.4,3.04-.59,8.71,1.84,10.58-2.21,1.95-4.21-2.43-7.16-2.7-9.22-.21-1.63,3.17-2.7,2.5-3.41-.59-.63-2.92,1.88-1.86,0,5.86-3.07,14.02-2.2,13.31,6.01Z"/>
    </g>
    <g id="Wing">
      <path class="cls-8" d="M7.88,52.27c-1.26,5.43-10.44,6.66-13.94,10.7-.93.13-2.39-.58-3.88-.43-5.25.54-10.67,3.84-16.1,3.68.6-.37,2.49-1.12,3.25-1.4,3.92-1.42,8.39-2.32,12.54-2.79-.23-2.26-5.6-.3-7.9,0,3.34-.99,5.34-3.46,7.9-5.58.7-.58,1.31-1.52,2.32-2.33,1.75-1.39,3.66-3.05,5.58-4.19,6.6-3.91,3.77-.05,5.55,1.2.92.65,2.36-.53,3.42-.21.8.24,1.17,1.3,1.26,1.33Z"/>
      <path class="cls-5" d="M6.49,39.71c-2.46,3.77-7.37,5.74-8.83,10.23-1.92,1.14-3.82,2.79-5.58,4.19,5.01-5.32,8.64-9.86,14.41-14.42Z"/>
      <path class="cls-5" d="M19.04,31.8c-3.51,3.26-7.67,5.55-12.08,7.44,3.94-2.96,7.65-5.3,12.08-7.44Z"/>
      <path class="cls-2" d="M21.83,50.41L1.84,62.04c-2.91.53-5.19.56-7.9.93,3.5-4.04,12.68-5.27,13.94-10.7,4.63,1.29,17.26-9.12,16.73-14.42,2.64,3.87-.47,9.24-2.79,12.56Z"/>
      <path class="cls-10" d="M21.83,50.41c-4.7,6.72-12.03,10.19-19.98,11.63l19.98-11.63Z"/>
    </g>
    <g id="Eye">
      <path class="cls-12" d="M37.63,19.71c-.06.05.12.8-.04.87-2.06.97-1.72-.8-1.82-.87h1.86Z"/>
      <path class="cls-12" d="M35.3,17.38v1.86c-.07-.09-.8.25-.95-.24-.63-2.05.88-1.52.95-1.62Z"/>
      <path class="cls-12" d="M35.77,16.91c.14-.1.41-2.46,2.53.02s-.12,2.17-.21,2.31c.12-1.52-.78-2.45-2.32-2.33Z"/>
      <circle class="cls-11" cx="36.76" cy="18.3" r="1.73"/>
      <circle class="cls-7" cx="37.24" cy="17.76" r=".35"/>
    </g>
    <path class="cls-9" d="M43.24,19.85c-.19-.04-.48.02-.99.26-.42.19-.87.44-1.25.58.25.44.9,1.18,1.14,1.62,1.07.48,1.74.65,2.81,1.12.01-.2,0-.49-.07-.83-.09-.38-.23-.64-.37-.87-.95-1.68-1.04-1.82-1.28-1.87Z"/>
  </g>
  <path id="Hider" class="cls-3" d="M30,59C13.98,59,1,46.02,1,30c0-4.01.82-7.84,2.29-11.32h-39.3v65.33H55.35v-39.94c-4.95,8.9-14.45,14.92-25.35,14.92Z"/>
  <circle id="Forward_Circle" data-name="Forward Circle" class="cls-13" cx="30" cy="30" r="29"/>
</svg>