<?xml version="1.0" encoding="UTF-8"?><svg id="a" xmlns="http://www.w3.org/2000/svg" xmlns:xlink="http://www.w3.org/1999/xlink" viewBox="0 0 1082.3 942.27"><defs><style>.r{fill:#f3f0e1;}.s{fill:#f2ecdc;}.t{fill:#fff9eb;}.u{fill:#cda79e;}.v{fill:url(#p);}.w{fill:url(#h);}.x{fill:url(#j);}</style><radialGradient id="h" cx="965.8" cy="87.24" fx="965.8" fy="87.24" r="25.5" gradientTransform="matrix(1, 0, 0, 1, 0, 0)" gradientUnits="userSpaceOnUse"><stop offset="0" stop-color="#1a1708"/><stop offset=".54" stop-color="#2c291b" stop-opacity=".92"/><stop offset=".78" stop-color="#6c6b61" stop-opacity=".64"/><stop offset=".96" stop-color="#dcdbd9" stop-opacity=".15"/><stop offset="1" stop-color="#fff" stop-opacity="0"/></radialGradient><radialGradient id="j" cx="973.8" cy="79.24" fx="973.8" fy="79.24" r="11.5" gradientTransform="matrix(1, 0, 0, 1, 0, 0)" gradientUnits="userSpaceOnUse"><stop offset="0" stop-color="#808076"/><stop offset=".16" stop-color="#7d7d73" stop-opacity=".97"/><stop offset=".29" stop-color="#75756a" stop-opacity=".9"/><stop offset=".41" stop-color="#67675b" stop-opacity=".76"/><stop offset=".53" stop-color="#545347" stop-opacity=".57"/><stop offset=".64" stop-color="#3b392c" stop-opacity=".33"/><stop offset=".74" stop-color="#1d1b0c" stop-opacity=".04"/><stop offset=".76" stop-color="#1a1708" stop-opacity="0"/></radialGradient><linearGradient id="p" x1="471.31" y1="463.02" x2="605.01" y2="679.26" gradientTransform="matrix(1, 0, 0, 1, 0, 0)" gradientUnits="userSpaceOnUse"><stop offset="0" stop-color="#f2eadd"/><stop offset=".64" stop-color="#f0e8db"/><stop offset=".87" stop-color="#ebe4d4"/><stop offset="1" stop-color="#e5e0cc"/></linearGradient></defs><g id="b"><path id="c" class="u" d="M730.8,819.24c4.33-2.33,8.67-4.67,13-7,.62,8.28,3.21,29.16,17.5,46.5,2.43,2.94,7.87,9.43,17,15,8.48,5.17,16.05,7.05,20,8,35.24,8.46,68.55,11.62,68.5,14.5-.02,1.12-5.11,1.87-6,2-27.92,3.99-85.61-4.67-97.5-6.5-1.65-.57-4.37-1.7-7-4-4.85-4.23-6.35-9.74-7-12-2.52-8.82-9.36-29.01-18.5-56.5Z"/><path id="d" class="u" d="M658.8,853.24c16.7,33.83,14.17,51.78,8,62-6.75,11.17-23.34,22.22-21,26,.5,.81,1.63,.9,3,1,9.3,.66,17.53-9.47,29-18,.64-.47,1.99-1.46,4-2,4.31-1.16,8.18,.65,9,1,5.19,2.19,35.25,7.39,85,15,16.61,1.8,20.85,.7,21.27-.82,.2-.73-.27-2.21-1.27-3.18-1.16-1.12-2.69-1.2-3.23-1.2-22.7-6.22-53.16-15.81-79.77-28.8-4.51-2.2-10.51-5.28-17-11-15.68-13.82-21.55-31.89-24-43-4.33,1-8.67,2-13,3Z"/><path id="e" class="t" d="M339.3,825.74c3.03-2.38,12.12-9.63,26-14,0,0,6.7-2.11,14-3,33.77-4.13,108.51,22.91,176,22,15.24-.21,17.89-1.67,28,0,35.59,5.89,48.35,31.58,73,27,8.27-1.54,14.46-5.84,19-9,16.19-11.26,13.89-25.71,26-30,8.57-3.03,10.93,3.33,26,2,1.67-.15,15.33-1.5,27-10,13.94-10.15,18.56-25.75,20-30,16.69-49.1,121.9-85.12,179-176,19.88-31.65,28.33-59.38,30-65,27.53-92.75-13.13-156.31-4-271,3.02-37.94,10.17-64.97,27-86,2.89-3.61,11.13-13.38,26-31,22.88-27.12,25.25-29.52,28-36,11.24-26.46,.38-53.69-1-57-11.43-27.49-35.77-39.17-50-46-45.15-21.66-89.59-10.01-104-6-7.17,1.99-35.08,10.28-64,34-44.5,36.51-62.51,85.91-78,130-18,51.23-10.59,57.95-28,84-21.11,31.6-50.02,48.69-81,67-40.28,23.81-50.81,20.77-87,44-25.79,16.55-43.24,32.73-62,51-93.62,91.15-110.66,128.01-183,192-34.05,30.12-55.84,49.39-91,70-33.38,19.56-68.12,34.06-136,72-1.33,.74-14.27,8.01-31,19-23.56,15.47-68.41,44.94-64,56,4.93,12.38,67.64-8.12,75,8,6.03,13.2-31.68,36.38-24,55,3.79,9.2,17.48,14.41,25,16,10.84,2.29,15.19-1.62,25,2,9.39,3.47,11.73,9.38,18,14,8.59,6.33,22.1,8.43,48,1,60.67-17.4,144.15-74.11,172-96Z"/><path id="f" class="s" d="M878.3,16.74c2.22,6.38,4.54,16.2,2,27-3.95,16.77-15.5,18.39-20,30-9.32,24.05,30.26,42.91,42,98,5.77,27.09,.41,42.27-2,48-6.95,16.54-19.25,25.71-25,30-45.34,33.81-135.67,9.75-142,8,4.29-5.44,9.54-13.43,13-24,2.07-6.31,2.74-11.24,3-13,3.19-21.81,15.8-59.67,28-88,6.56-15.23,13.1-30.22,25-48,12.14-18.14,23.49-29.69,29-35,4.8-4.62,8.71-7.92,10-9,13.52-11.3,26.58-18.9,37-24Z"/><path id="g" class="u" d="M1006.3,112.74c4.81-6.18,13.42-6.06,18-6,1.58,.02,9.01,.24,17,5,6.09,3.62,9.54,8.12,11,10,22.31,28.81,29,34,30,39-9,4-55.96-11.44-71-25-2.65-2.39-7.89-7.23-8-14-.01-.68-.03-5.1,3-9Z"/><circle id="i" class="w" cx="965.8" cy="87.24" r="25.5"/><circle id="k" class="x" cx="973.8" cy="79.24" r="11.5"/><path id="l" class="r" d="M76.3,837.74c16.98-48.77,227-57,227-57,28.91-1.13,41.15-.74,42,3,2.31,10.16-83.21,28.96-183,89-23.98,14.43-42.77,27.83-55,37-1.37-.91-3.39-2.07-6-3-2.17-.77-2.82-.69-3-1-2.79-4.66,54-40,54-40,42.68-26.56,66.24-38.07,65-41-1.11-2.61-21.03,3.49-29,6-70.45,22.2-133.7,59.48-138,53-.41-.61-.27-1.74,0-4,.56-4.67,2.8-7.98,5-11,4.51-6.19,6.12-7.43,12-15,2.42-3.11,4.21-5.56,6-9,1.94-3.71,2.89-6.67,3-7Z"/><path id="m" class="r" d="M123.47,923.25c57.92-25.99,115.83-51.98,173.75-77.96,7.75-1.14,2.16,4.57,2.16,4.57-16.36,14.86-162.93,76.57-164.65,76.35-2.26-.29-4.47-.67-4.47-.67h0c-2.05-.39-2.98-.68-3.38-.81-1.47-.48-2.63-1.05-3.4-1.48Z"/><path id="n" class="r" d="M238.6,700.22c-84.05,33.92-125.48,52.52-124.3,55.8,1.32,3.67,55.86-11.78,163.61-46.36-13.1-3.15-26.21-6.3-39.31-9.45Z"/><path id="o" class="r" d="M61.54,795.45c.9,2.67,19.26-.93,22.29-1.52,1.67-.33,2.89-.6,2.93-.61,2.91-.65,221.84-58.33,234.92-61.77,3.18-.84,4.39-4.73,2.23-7.21l-.13-.14c-4.73-5.45-12.19-7.65-19.13-5.64-30.8,8.94-48.06,2.22-220.24,63.9-.17,.06-1.57,.56-3.44,1.28-.95,.37-5.83,2.27-9.24,4-.44,.22-10.91,5.6-10.19,7.71Z"/><path id="q" class="v" d="M796.3,363.74c1.93-.39,6.68,15.17,8,20,7.98,29.13,5.44,84.04-28,145-28.4,51.78-64.75,81.77-91,103-93.19,75.38-186.63,92.54-249,104-10.67,1.96-101.3,17.92-132-10-3.13-2.85-10.45-10.53-23-15-23.67-8.43-41.56,3.24-45-2-4.52-6.89,22.61-32.76,76-80,20.03-17.72,46.73-41.08,85-69,45.91-33.5,62.24-39.83,72-34,13.99,8.36,4.29,35.66,20,44,15.14,8.04,33.3-12.43,52-3,10.01,5.05,9.62,13.36,16,19,37.78,33.41,205.89-121.45,227-163,9.24-18.17,11-33,11-33,1.68-14.09-.65-25.67,1-26Z"/></g></svg>