<?xml version="1.0" encoding="UTF-8"?><svg id="a" xmlns="http://www.w3.org/2000/svg" viewBox="0 0 522.08 963"><defs><style>.b{fill:#373a40;}.c{fill:#fff;}.d{fill:#eca36c;}.e{fill:#e6e6e6;}.f{fill:#ffcb9b;}.g{fill:#f09d8e;}.h{fill:#dba978;}</style></defs><path class="f" d="M335.7,911c17.54-42.8,34.29-92.63,47-149,5.49-24.33,9.74-47.72,13-70L92.7,509c.09,11.41-.13,29.24-2,51-2.49,28.87-6.6,49.69-7,52-4.71,26.86,44.18,101.82,252,299Z"/><path class="d" d="M89.7,570c29,32,97,155,306,122,19.34-3.05-303-237.78-303-183,0,21-1,37-3,61Z"/><path class="f" d="M56.7,80c-126.53,133.94-17.41,393.05,107,518,32.93,33.07,123.46,123.99,210,102,121.88-30.98,152.27-264.72,148-390-2.93-86.05-6.14-180.27-76-245C343.68-29.54,147.82-16.45,56.7,80Z"/><path class="b" d="M515.7,220c-2.9,1.23-15.93-62.36-70-92-27.76-15.22-54.73-15.13-96-15-30.22,.1-71.33,.64-119,21-15.07,6.43-53.06,23.12-87,60-32.09,34.87-28.03,52.45-63,81-23.33,19.05-60.14,39.81-73,29-3.21-2.69-3.98-6.56-5-16-4.52-41.72-2-61-2-61,6.01-45.97,9.01-68.95,20-93,22.44-49.1,58.93-75.92,73-86C141.21,13.96,188.41,7.36,214.7,4,249.44-.44,356.41-14.11,437.7,58c73.3,65.02,81.46,160.53,78,162Z"/><path class="c" d="M492.7,889c-.7-12.83-1.99-26.18-4-40-10.72-73.54-38.2-133.13-65-177-9.33,6.67-18.67,13.33-28,20-3.56,25.12-8.42,51.9-15,80-12.45,53.15-28.48,99.99-45,140,5.8-6.7,34.26-38.15,82-42,38.03-3.07,65.93,13.18,75,19Z"/><path class="c" d="M90.7,560c-1.89,13.1-2.92,33.01,4,55,3.54,11.24,8.02,19.43,28,48,20.33,29.07,31.53,45.08,54,73,19.13,23.77,34.63,41.49,43,51,24.91,28.29,63.32,70.76,116,125-8.77-3.57-16.31-6.17-22-8-16.02-5.15-21.65-5.51-25.75-5.4,0,0-6.74,.17-14.25,2.4-23.74,7.05-45.92,38.95-48,42-20.46-34.97-36.26-63.37-47-83-11.68-21.35-21.78-40.41-39-70-12.03-20.68-15.13-25.18-22-37-12.24-21.07-28.54-51.71-45-92-5.79-18.01-6.37-33.26-6-43,.51-13.18,1.22-31.75,14-48,3.63-4.62,7.33-7.89,10-10Z"/><path class="e" d="M351.7,963c1.69-11.06,5.04-25.38,12-41,10.33-23.19,24.16-39.29,34-49-10.27,2.83-24.91,8.24-40,19-9.47,6.76-16.69,13.89-22,20,5.33,17,10.67,34,16,51Z"/><ellipse class="b" cx="445.7" cy="339.5" rx="20" ry="12.5"/><ellipse class="b" cx="265.7" cy="336.5" rx="20" ry="12.5"/><path class="b" d="M411.35,297.17c4.97,11.32,13.64-1.06,43.44-1.12,30.38-.06,43.3,4.39,44.12,1.12,1.12-4.41-20.36-20.53-44.78-20.17-23.46,.35-47.76,8.86-42.79,20.17Z"/><path class="b" d="M316.88,288.3c-4.83,12.93-16.02,.09-50.85,2.75-35.5,2.71-50.21,8.8-51.46,5.28-1.68-4.76,22.01-24.5,50.57-26.34,27.44-1.77,56.57,5.38,51.74,18.31Z"/><path class="h" d="M396.7,418c9.09,31.22,13.52,46.95,8,53-5.85,6.42-17.5,6-19,6,0,0-4.87-.16-9-3-.42-.29-1.52-1.04-1.37-1.68,.11-.47,.85-.68,1.3-.79,2.04-.51,11.13-.64,15.62-1.58,.69-.14,1.84-.43,2.6-1.58,.86-1.31,.76-3.05,.65-3.94-1.2-7.21-10.42-62.83-10.41-66.28,0-1.58,.65-2.37,.65-2.37,.21-.28,.53-.6,.97-.65,2.87-.36,6.67,11.46,9.99,22.86Z"/><path class="g" d="M425.85,554.85c.84-1.06,.64-2.51-.46-3.37-9.35-7.3-19.63-10.36-25.39-10.36-6.14,0-7.02,1.39-12.27,1.78-5.51,.41-9.39-2.51-15.68-1.78-18.94,2.2-18.06,2.87-34.55,10.02-2.1,.91-2.42,3.4-.61,4.71,7.96,5.75,14.63,7.71,36.52,13.16,2.38-.09,10.23-1.19,17.05-1.19s9.96,.87,12.27,.59c8.38-2.24,15.22-3.49,23.12-13.56Z"/></svg>