<svg xmlns="http://www.w3.org/2000/svg" version="1.1" xmlns:xlink="http://www.w3.org/1999/xlink" width="60" height="60"><svg id="SvgjsSvg1018" xmlns="http://www.w3.org/2000/svg" viewBox="0 0 60 60">
  <defs>
    <style>
      .cls-1 {
        fill: #f0ecdb;
      }

      .cls-2 {
        fill: #eee7d8;
      }

      .cls-3 {
        fill: #f1eedf;
      }

      .cls-4 {
        fill: #3d5270;
      }

      .cls-5 {
        fill: #f0efe9;
      }

      .cls-6 {
        fill: #fcf7ea;
      }

      .cls-7 {
        fill: #d8d8d8;
      }

      .cls-8 {
        fill: #f0e9dc;
      }

      .cls-9 {
        fill: #c18b1d;
      }

      .cls-10 {
        fill: #e8e3d0;
      }

      .cls-11 {
        fill: #41403a;
      }

      .cls-12 {
        fill: #f8f5e9;
      }

      .cls-13 {
        fill: #f3f2ec;
      }

      .cls-14 {
        fill: #c28c1a;
      }
    </style>
  </defs>
  <circle id="SvgjsCircle1017" data-name="Back Circle" class="cls-4" cx="30" cy="30" r="29"></circle>
  <g id="SvgjsG1016">
    <g id="SvgjsG1015">
      <path class="cls-14" d="M33.48,42.4c.26.11.73,1.27,1.38,1.69.88.58,2.33.36,2.71,1.26-1.21.29-2.65-.44-3.73-.39-.09,0-1.78,1.35-1.5.28.18-.71,1.87-1,.44-2.86.17.06.55-.05.69.01Z"></path>
      <path class="cls-14" d="M35.98,41.26c.08.49.25.84.41,1.08,1.04,1.6,3.02,1.29,3.18,1.28,0,.06-.02.23-.11.28-.32.19-.52.21-1.17.16-.68-.05-.81-.08-.91-.11-.33-.1-.59-.22-.78-.31-.13.15-.25.26-.34.34-.11.09-.19.14-.28.14-.05,0-.13,0-.16-.04-.1-.12.27-.41.29-.87,0-.12-.01-.22-.03-.28-.35-.57-.7-1.14-1.05-1.7.12.01.24.02.94.05Z"></path>
    </g>
    <g id="SvgjsG1014">
      <path class="cls-1" d="M40.15,15.33c-.52.92.62-.31.91,0,.33.35-1.33.87-1.22,1.67.13,1.01,2.27,2.45,1.32,4.51-.92,1.98-3.69,1.02-5.18,1.31v-.23c.55-1.15.97-2.09,1.25-2.74.85-1.95,1.25-3.1,2.44-4.15.19-.17.37-.3.48-.38Z"></path>
      <path class="cls-6" d="M46.66,18.27c-.1.14-.22.28-.37.44-.19.2-.38.35-.54.47-4.66,3.74-.18,8.82-1.99,13.6-1.3,3.44-3.66,3.7-5.79,5.74-.49.47-1.07,2.34-1.99,2.74-.18.08-.7-.08-.91,0-.62.23-1.5.09-1.59,1.14-.14-.06-.52.06-.68,0-.3-.11-2.71-.88-2.86-.9-1.21-.13-1.68.83-2.08,0l-4.49-.72c-2.5,1.37-5.75,4.54-8.75,3.88.03-.22-.04-.48,0-.68.02-.1.23-.29.23-.46.14-.06.32-.05.68-.23,2.18-1.07,4.45-2.04,6.59-3.19h-3.52c-1.05,0-4.45.71-5.12,1.59-.25-.18-.59-.48-.91-.46-.05-.21-.29-.82-.23-.91.04-.06.37.05.45,0,2.66.08,5.31-1.54,7.88-1.8.73-.07,1.45.27,1.9.21,1.32-.18,2.44-.2,3.87-.46,3.89-.71,7.48-2.4,9.78-5.69,1.14-1.63,2.66-4.25,1.37-6.15.26,2.59-5.92,7.69-8.19,7.06-.04-.01-.23-.53-.62-.65-.52-.16-1.22.42-1.67.1-.87-.61.51-2.5-2.71-.59.71-2.2,3.12-3.16,4.32-5.01.08-.06.14-.16.23-.23,2.16-.93,4.19-2.04,5.91-3.64.08-.07.14-.17.23-.23,1.12-.79.82-.67.91-.68,1.49-.29,4.26.9,5.18-1.08.95-2.06-1.19-3.5-1.32-4.51-.1-.8,1.55-1.32,1.22-1.67-.29-.31-1.43.92-.91,0,2.87-1.5,6.86-1.08,6.51,2.94Z"></path>
    </g>
    <g id="SvgjsG1013">
      <path class="cls-8" d="M29.38,33.52c-.62,2.66-5.11,3.26-6.82,5.24-.45.06-1.17-.28-1.9-.21-2.57.26-5.22,1.88-7.88,1.8.29-.18,1.22-.55,1.59-.68,1.92-.7,4.1-1.13,6.14-1.37-.11-1.11-2.74-.15-3.86,0,1.63-.48,2.61-1.69,3.87-2.73.34-.28.64-.75,1.14-1.14.86-.68,1.79-1.49,2.73-2.05,3.23-1.92,1.84-.02,2.71.59.45.32,1.16-.26,1.67-.1.39.12.57.64.62.65Z"></path>
      <path class="cls-12" d="M13.01,43.08c1.56-.25,3.16-1.43,4.77-1.59l-2.27,1.82c-.37.18-.55.17-.68.23-.22.1-.51.03-.68.34l.45.11c-.04.21.03.47,0,.68-.83-.18-2.08-.73-2.05-1.59.15-.02.31.02.45,0Z"></path>
      <path class="cls-5" d="M20.52,35.57c-1.25,1.04-2.23,2.25-3.87,2.73-.27.04-.45.1-.68.23-.08.04-.15.17-.23.23-.57.26-1.44.35-1.36.91-.37.14-1.3.5-1.59.68-.08.05-.42-.05-.45,0-.06.09.17.7.23.91.32-.03.66.28.91.46-.28.36-.45.9-.45,1.37-.14.02-.31-.02-.45,0,.04-.88.46-.6.46-1.02,0-.38-.31-.2-.46-.8-.18.01-2.93,1.19-1.57-.32,1.68-1.88,7.27-3.68,9.53-5.37ZM11.99,40.8v.23s.11-.11.11-.11l-.11-.11Z"></path>
      <path class="cls-5" d="M28.7,27.38c-1.2,1.84-3.61,2.81-4.32,5.01-.94.56-1.87,1.37-2.73,2.05,2.45-2.6,4.23-4.82,7.05-7.06Z"></path>
      <path class="cls-5" d="M34.84,23.51c-1.72,1.6-3.75,2.72-5.91,3.64,1.93-1.45,3.74-2.59,5.91-3.64Z"></path>
      <path class="cls-2" d="M36.2,32.61l-9.78,5.69c-1.42.26-2.54.27-3.87.46,1.71-1.98,6.2-2.58,6.82-5.24,2.27.63,8.45-4.46,8.19-7.06,1.29,1.89-.23,4.52-1.37,6.15Z"></path>
      <path class="cls-3" d="M13.47,41.72c.67-.88,4.06-1.59,5.12-1.59h3.52c-2.15,1.15-4.41,2.11-6.59,3.19l2.27-1.82c-1.62.16-3.22,1.34-4.77,1.59,0-.46.18-1,.45-1.37Z"></path>
      <path class="cls-10" d="M36.2,32.61c-2.3,3.29-5.89,4.98-9.78,5.69l9.78-5.69Z"></path>
      <path class="cls-3" d="M14.83,43.54c0,.17-.21.36-.23.46l-.45-.11c.17-.32.46-.25.68-.34Z"></path>
      <path class="cls-6" d="M16.65,38.3c1.12-.15,3.75-1.11,3.86,0-2.03.23-4.22.67-6.14,1.37-.08-.56.79-.65,1.36-.91.08-.04.15-.17.23-.23.24-.13.41-.19.68-.23Z"></path>
      <polygon class="cls-6" points="11.99 40.8 12.1 40.92 11.99 41.03 11.99 40.8"></polygon>
    </g>
    <g id="SvgjsG1012">
      <path class="cls-13" d="M43.93,17.59s.06.39-.02.43c-1.01.47-.84-.39-.89-.43h.91Z"></path>
      <path class="cls-13" d="M42.8,16.45v.91s-.39.12-.46-.12c-.31-1,.43-.74.46-.79Z"></path>
      <path class="cls-13" d="M43.02,16.22c.07-.05.2-1.2,1.24.01s-.06,1.06-.1,1.13c.06-.75-.38-1.2-1.14-1.14Z"></path>
      <circle class="cls-11" cx="43.51" cy="16.9" r=".85"></circle>
      <circle class="cls-7" cx="43.74" cy="16.64" r=".17"></circle>
    </g>
    <path class="cls-9" d="M46.68,17.66c-.09-.02-.23,0-.49.12-.2.09-.43.21-.61.28.12.21.44.58.56.79.52.23.85.32,1.37.55,0-.1,0-.24-.03-.41-.04-.18-.11-.31-.18-.42-.47-.82-.51-.89-.63-.92Z"></path>
  </g>
</svg><style>@media (prefers-color-scheme: light) { :root { filter: none; } }
@media (prefers-color-scheme: dark) { :root { filter: none; } }
</style></svg>