<?xml version="1.0" standalone="no"?>
<!DOCTYPE svg PUBLIC "-//W3C//DTD SVG 20010904//EN"
 "http://www.w3.org/TR/2001/REC-SVG-20010904/DTD/svg10.dtd">
<svg version="1.0" xmlns="http://www.w3.org/2000/svg"
 width="240.000000pt" height="240.000000pt" viewBox="0 0 240.000000 240.000000"
 preserveAspectRatio="xMidYMid meet">
<metadata>
Created by potrace 1.14, written by Peter Selinger 2001-2017
</metadata>
<g transform="translate(0.000000,240.000000) scale(0.100000,-0.100000)"
fill="#000000" stroke="none">
<path d="M1000 2383 c-248 -42 -461 -154 -645 -338 -142 -141 -226 -274 -293
-465 -16 -47 -30 -87 -30 -90 0 -8 -14 -84 -19 -105 -12 -50 -10 -297 3 -380
67 -418 365 -779 766 -928 131 -50 233 -69 383 -73 264 -6 489 58 710 204 91
61 258 228 318 318 83 127 165 319 183 429 3 20 8 47 11 59 9 40 11 281 2 344
-15 106 -19 124 -49 214 -64 190 -150 329 -295 473 -172 173 -355 274 -590
327 -116 26 -334 32 -455 11z"/>
</g>
</svg>
