<?xml version="1.0" encoding="UTF-8"?>
<svg id="Layer_1" data-name="Layer 1" xmlns="http://www.w3.org/2000/svg" viewBox="0 0 27.75 11.32">
  <defs>
    <style>
      .cls-1 {
        fill: #1993ff;
      }

      .cls-2 {
        fill: #ffd500;
      }

      .cls-3 {
        stroke: #ffd500;
      }

      .cls-3, .cls-4 {
        fill: none;
        stroke-miterlimit: 10;
      }

      .cls-4 {
        stroke: #1993ff;
      }
    </style>
  </defs>
  <path class="cls-2" d="M5.13,5.51h-.91l.14.18-3.33,4.18h.3l3.17-3.97,3.11,3.97h.84l-3.32-4.36Z"/>
  <polygon class="cls-1" points="5.02 5.37 5.13 5.51 4.22 5.51 1.11 1.47 1.96 1.47 4.87 5.18 7.84 1.47 8.15 1.47 5.02 5.37"/>
  <polygon class="cls-2" points="14.92 5.51 13.11 9.87 12.48 9.87 10.66 5.51 11.45 5.51 13.03 9.28 13.07 9.28 14.66 5.51 14.92 5.51"/>
  <polygon class="cls-1" points="16.6 1.47 14.92 5.51 14.66 5.51 16.36 1.47 16.6 1.47"/>
  <polygon class="cls-1" points="11.45 5.51 10.66 5.51 8.98 1.47 9.75 1.47 11.45 5.51"/>
  <rect class="cls-2" x="18.41" y="5.51" width=".72" height="4.36"/>
  <rect class="cls-1" x="18.41" y="1.47" width=".72" height="4.04"/>
  <rect class="cls-2" x="22.22" y="5.51" width=".72" height="4.36"/>
  <rect class="cls-1" x="22.22" y="1.47" width=".72" height="4.04"/>
  <rect class="cls-2" x="26.04" y="5.51" width=".72" height="4.36"/>
  <rect class="cls-1" x="26.04" y="1.47" width=".72" height="4.04"/>
  <line id="BottomLine" class="cls-3" y1="10.82" x2="27.75" y2="10.82"/>
  <line id="TopLine" class="cls-4" y1=".5" x2="27.75" y2=".5"/>
</svg>