<?xml version="1.0" encoding="UTF-8"?><svg id="a" xmlns="http://www.w3.org/2000/svg" viewBox="0 0 905.45 905.26"><g><path d="M805.15,170.21c1.3,4.5,2.3,9.36,3.01,14.59,.81,5.94,.03,11.53-2.32,16.76-4.54,10.1-11.69,8.87-20.43,5.88" style="fill:none; stroke:rgba(44,43,44,.99); stroke-width:2px;"/><path d="M97.88,240.65c-4.84-3.12-9.04-6.09-12.59-8.92-12.41-9.87-7-21.95-.68-33.37,4.05-7.29,8.76-14.79,14.14-22.48,3.23-4.61,6.79-8.91,10.7-12.89,3.66-3.73,7.39-7.92,11.2-12.56,6.9-8.42,14.47-15.11,23.38-23.25,3.57-3.27,8.28-7.72,14.11-13.36,4.48-4.32,9.05-6.84,13.55-11.02,7.17-6.65,14.35-12.46,21.55-17.42,3.36-2.31,5.98-5.09,7.87-8.32" style="fill:none; stroke:rgba(39,38,39,.99); stroke-width:2px;"/><path d="M43.89,520.8c-2.81,3.73-7.04,3.08-11.34,1.67-3.91-1.28-6.7-2.14-8.37-2.57-9.33-2.42-8.09,4.39-9.78,9.52-.15,.45-.63,.7-1.08,.56-.11-.04-.22-.1-.31-.18-.34-.3-.65-.84-.92-1.62-3.51-10.09-5.09-21.66-6.03-35.28-1.01-14.56-1.28-27.35-5.1-40.32" style="fill:none; stroke:rgba(26,25,26,.99); stroke-width:2px;"/><path d="M599.06,140.61l.02-1.02" style="fill:none; stroke:rgba(35,34,34,.99); stroke-width:2px;"/><path d="M560.27,384.33c-5.89,1.1-11.17,.62-15.84-1.44-16.77-7.39-30.56-11.98-49.69-18.92-20.78-7.55-43.04-6.13-65.16-3.2-7.15,.94-12.45,1.35-15.9,1.23-17-.59-35.27-.36-54.68-2.16-11.93-1.11-16.95-1.2-28.79-1.96-14.42-.93-27.95-4.06-43.5-7.04-17.89-3.43-33.64-3.17-51.32,3.26-2.97,1.09-7.5,2.67-13.58,4.75-2.5,.86-4.86,1.35-7.07,1.48-.56,.03-1.03-.39-1.07-.95,0-.15,.02-.31,.08-.45,3.28-7.72,15.41-11.75,22.71-15.24,14.15-6.76,28.33-10.82,43.93-11.78,1.83-.11,4.21-.64,7.12-1.57" style="fill:none; stroke:rgba(35,34,34,.99); stroke-width:2px;"/><path d="M860.77,260.52c3.39,12.35,6.89,24.6,10.49,36.74,2.78,9.39,4.9,20.68,1.83,29.96-2.87,8.66-11.22,12.92-18.33,5.25-4.04-4.36-6.62-9.58-9.18-15.57-4.63-10.81-9.68-21.39-15.15-31.75" style="fill:none; stroke:rgba(35,34,34,.99); stroke-width:2px;"/><path d="M904.46,470.93c-1.25,8.22-3.04,16.28-5.38,24.17-6.63,22.43-23.23,16.2-35.29,3.76" style="fill:none; stroke:rgba(26,25,26,.99); stroke-width:2px;"/><path d="M454.97,440.91c-6.44,19.38-11.7,43.6-14.64,56.79-1.64,7.37-3.9,17.46-9.74,23.26-7.13,7.08-18.29-.32-23.09,10.03-.39,.83-1.44,3.46-3.17,7.87-.1,.26-.39,.39-.65,.28-.11-.04-.2-.12-.26-.22-.21-.37-.35-.99-.43-1.88-.19-2.26-.42-8-.67-17.22-.04-1.41-.47-3.29-1.29-5.64" style="fill:none; stroke:rgba(26,25,26,.99); stroke-width:2px;"/><path d="M310.42,422.83c-1.41,2.39-2.67,5.39-3.79,8.98-5.04,16.08-8.46,26.91-10.27,32.5-.53,1.64-1.19,3.26-1.98,4.86-.14,.27-.25,.56-.34,.86-2.03,6.87-3.97,12.45-5.8,16.74-1.65,3.85-4.39,8.63-8.23,14.35-8.15,12.12-16.53,24.01-24.38,30.91-7.13,6.27-14.28,12.53-21.46,18.78-10.1,8.79-16,19.43-18.32,32.88-1.9,11.04-3.26,20.11-4.86,32.3-.63,4.81-1.64,10.77-5.89,13.27-5.54,3.24-7.71-2.2-7.71-6.66,0-17.39,.32-31.82,.94-43.29,.3-5.57,.09-9.36,.43-14.16,.21-2.86,.32-6.39,.33-10.58,.03-8.19,.17-13.11,.4-14.76,.28-1.96,.73-3.33,1.34-4.1,4.94-6.2,8.82-11.48,11.64-15.85,2.97-4.58,5.22-10.05,6.76-16.41,.51-2.12,.5-4.63,.7-7.39,.73-9.6-1.27-17.28-6.25-25.72-3.29-5.57-5.78-10.45-7.47-14.66-5.5-13.73-9.94-27.95-13.32-42.66-.4-1.71-1.37-3.76-2.92-6.14" style="fill:none; stroke:rgba(26,25,26,.99); stroke-width:2px;"/><path d="M803.13,402.43l5.81,3.99c.62,.43,.94,1.17,.82,1.91-1.54,9.16-3.36,16.2-9.58,22.86-16.61,17.79-35.11,29.51-59.75,34.96-4.57,1.01-9.85,2.03-15.86,3.05-4.01,.69-9.49,2.42-12.92,4.57-9.27,5.81-15.64,9.22-24.75,12.06-12.66,3.94-24.03,.09-34.6-7.38-7.23-5.11-13.89-11.25-19.99-18.41-1.61-1.9-3.06-4.11-4.33-6.64-3.16-6.28-8.95-13.59-.1-19.08" style="fill:none; stroke:rgba(26,25,26,.99); stroke-width:2px;"/><path d="M723.57,766.88c.27-.24,.3-.65,.07-.92-.06-.07-.13-.12-.22-.16-24.29-11.39-48.88-21.09-73.78-29.1-50.36-16.21-101.09-27.45-154.18-33.19-37.41-4.05-76.95-4.86-118.63-2.45-39.34,2.28-80.21,8.21-122.62,17.78-22.87,5.16-43.98,11.34-63.33,18.53-14.76,5.48-22.95,8.59-24.56,9.34-1.35,.62-2.3,1.14-2.86,1.56-.35,.26-.42,.75-.17,1.1,.05,.06,.1,.12,.17,.17,4.58,3.38,9.88,9.12,14.43,13.03,49.75,42.83,105.93,72.86,168.52,90.09,14.53,4,30.82,7.35,48.85,10.05,4.91,.73,11.39,1.44,19.46,2.12,10.45,.88,16.95,1.37,19.48,1.46,59.69,2.3,117.34-7.54,172.95-29.52,14.1-5.57,27.22-11.53,39.36-17.88,28.21-14.76,53.9-32.1,77.06-52.01" style="fill:none; stroke:rgba(117,116,118,.99); stroke-width:2px;"/><path d="M388.29,731.58c.04-4.9-3.9-8.91-8.8-8.96l-10.96-.1c-4.9-.04-8.91,3.9-8.96,8.8h0v1.16c-.05,4.9,3.89,8.91,8.79,8.96l10.96,.1c4.9,.04,8.91-3.9,8.96-8.8h0v-1.16" style="fill:none; stroke:rgba(117,116,118,.99); stroke-width:2px;"/><path d="M498.34,737.05c.08-5.37-4.22-9.79-9.59-9.86h0l-16.92-.24c-5.37-.08-9.79,4.22-9.86,9.59l-.02,1.12c-.08,5.37,4.22,9.79,9.59,9.86l16.92,.24c5.37,.08,9.79-4.22,9.86-9.59l.02-1.12" style="fill:none; stroke:rgba(117,116,118,.99); stroke-width:2px;"/><path d="M296.31,747.92c.1-5.31-4.12-9.7-9.43-9.8h0l-28.59-.55c-5.31-.1-9.7,4.12-9.8,9.43h0l-.02,.84c-.1,5.31,4.12,9.7,9.43,9.8h0l28.59,.55c5.31,.1,9.7-4.12,9.8-9.43h0l.02-.84" style="fill:none; stroke:rgba(117,116,118,.99); stroke-width:2px;"/><path d="M629.49,756.47c.07-5.31-4.17-9.68-9.48-9.75l-31.24-.44c-5.31-.07-9.68,4.17-9.75,9.48v.8c-.09,5.31,4.16,9.68,9.47,9.75l31.24,.44c5.31,.07,9.68-4.17,9.75-9.48v-.8" style="fill:none; stroke:rgba(117,116,118,.99); stroke-width:2px;"/><path d="M420.99,766.36c.13-4.08-3.07-7.49-7.15-7.62l-7.34-.23c-4.08-.13-7.49,3.07-7.62,7.15h0l-.03,1.06c-.13,4.08,3.07,7.49,7.15,7.62l7.34,.23c4.08,.13,7.49-3.07,7.62-7.15h0l.03-1.06" style="fill:none; stroke:rgba(117,116,118,.99); stroke-width:2px;"/><path d="M359.99,781.22c.08-5.39-4.23-9.82-9.62-9.9l-15.46-.22c-5.39-.08-9.82,4.23-9.9,9.62h0l-.02,1.18c-.08,5.39,4.23,9.82,9.62,9.9l15.46,.22c5.39,.08,9.82-4.23,9.9-9.62h0l.02-1.18" style="fill:none; stroke:rgba(117,116,118,.99); stroke-width:2px;"/><path d="M576.98,789.06c.09-5.35-4.17-9.76-9.52-9.86h0l-35.87-.63c-5.35-.09-9.76,4.17-9.86,9.52v.74c-.11,5.35,4.16,9.76,9.51,9.86h0l35.87,.63c5.35,.09,9.76-4.17,9.86-9.52v-.74" style="fill:none; stroke:rgba(117,116,118,.99); stroke-width:2px;"/><path d="M477.64,815.6c0-5.48-4.43-9.94-9.91-9.95h0l-13.56-.02c-5.48,0-9.94,4.43-9.95,9.91v1.26c-.01,5.48,4.43,9.94,9.91,9.95h0l13.56,.02c5.48,0,9.94-4.43,9.95-9.91v-1.26" style="fill:none; stroke:rgba(117,116,118,.99); stroke-width:2px;"/></g><path d="M805.15,170.21c1.3,4.5,2.3,9.36,3.01,14.59,.81,5.94,.03,11.53-2.32,16.76-4.54,10.1-11.69,8.87-20.43,5.88-3.33-4.31-6.7-8.63-10.12-12.95-5.44-6.85-9.74-12.13-12.9-15.85-4.82-5.67-9.79-10.32-14.19-15.38-3.21-3.69-7-7.5-11.37-11.42-3.78-3.41-8.1-7.77-10.75-10.03-10.85-9.23-18.59-15.61-23.23-19.15-19.22-14.68-39.53-27.81-62.6-39.85-17.33-9.04-33.91-16.3-49.72-21.77-13.99-4.85-24.06-8.11-30.2-9.8-22.81-6.27-46.14-10.53-69.99-12.78-5.28-.5-9.27-.11-13.58-.67-3.69-.49-7.06-.73-10.13-.72-7.79,.01-18.04,.03-30.73,.05-1.34,0-2.3,.06-2.89,.18-5.21,1.09-11.24,.37-15.59,1.26-3.72,.76-7.56,.34-11.57,1.22-1.81,.39-3.86,.3-5.89,.56-33.73,4.26-65.88,12.52-96.46,24.78-15.93,6.39-33.43,14.85-52.49,25.38-21.18,11.7-41.96,26.55-59.87,41.3-23.51,19.37-44.88,41.26-64.1,65.65-9.49,12.05-19.21,26.45-29.16,43.2-4.84-3.12-9.04-6.09-12.59-8.92-12.41-9.87-7-21.95-.68-33.37,4.05-7.29,8.76-14.79,14.14-22.48,3.23-4.61,6.79-8.91,10.7-12.89,3.66-3.73,7.39-7.92,11.2-12.56,6.9-8.42,14.47-15.11,23.38-23.25,3.57-3.27,8.28-7.72,14.11-13.36,4.48-4.32,9.05-6.84,13.55-11.02,7.17-6.65,14.35-12.46,21.55-17.42,3.36-2.31,5.98-5.09,7.87-8.32,4.91-3.43,9.94-6.75,15.11-9.97,30.34-18.87,62.38-33.84,96.11-44.89,27.47-9,55.67-15.36,84.62-19.09,4.83-.63,8.71-1.07,11.62-1.34,1.13-.1,2.04-.22,2.75-.37,.64-.13,1.3-.19,1.96-.18,5.94,.08,11.33-1.03,17.1-1.11,14.03-.17,28.47-.15,43.32,.07,2.91,.04,5.24,.23,7,.56,3.04,.58,6.02,.28,9.34,.6,6.29,.61,12.3,1.26,18.03,1.94,24.45,2.92,48.4,7.96,71.83,15.13,40.78,12.46,77.16,28.59,109.13,48.4,17.65,10.93,35.53,23.97,53.62,39.12,21.73,18.19,42.57,39.62,62.5,64.28Z" style="fill:rgba(48,47,49,.99);"/><path d="M201.11,77.06c-1.89,3.23-4.51,6.01-7.87,8.32-7.2,4.96-14.38,10.77-21.55,17.42-4.5,4.18-9.07,6.7-13.55,11.02-5.83,5.64-10.54,10.09-14.11,13.36-8.91,8.14-16.48,14.83-23.38,23.25-3.81,4.64-7.54,8.83-11.2,12.56-3.91,3.98-7.47,8.28-10.7,12.89-5.38,7.69-10.09,15.19-14.14,22.48-6.32,11.42-11.73,23.5,.68,33.37,3.55,2.83,7.75,5.8,12.59,8.92-1.98,3.35-3.88,6.71-5.7,10.1-5.87,10.93-9.7,18.2-11.51,21.82-15.67,31.44-26.4,64.96-33.64,98.81-2.63,12.29-4.25,21.66-4.84,28.11-.26,2.83-.48,4.71-.66,5.63-.54,2.87-.78,4.7-.71,5.51,.18,2.09-.89,4.87-.86,7.39,.03,2.56-.11,4.91-.4,7.05-.94,6.94-.56,13.99-1.11,20.56-.87,10.43,.37,21.46,.56,31.68,.06,2.87,.84,6.75,.84,9.18,0,3.93,.24,7.65,.69,11.14,1.01,7.76,2.13,15.48,3.35,23.17-2.81,3.73-7.04,3.08-11.34,1.67-3.91-1.28-6.7-2.14-8.37-2.57-9.33-2.42-8.09,4.39-9.78,9.52-.15,.45-.63,.7-1.08,.56-.11-.04-.22-.1-.31-.18-.34-.3-.65-.84-.92-1.62-3.51-10.09-5.09-21.66-6.03-35.28-1.01-14.56-1.28-27.35-5.1-40.32v-8.36c.41-7.17,.98-14.31,1.12-21.49,.05-2.5,.32-4.95,.82-7.36,.02-.08,.03-.16,.03-.24l.12-5.01c.01-.47,.07-.93,.16-1.39,.49-2.3,.76-4.2,.79-5.7,.06-2.51,.23-4.31,.51-5.4,.38-1.45,.83-4.35,1.34-8.7,.35-2.95,.77-5.85,1.26-8.72,4.89-28.63,11.87-55.57,20.95-80.82,1.83-5.11,4.58-12.08,8.23-20.93,2.75-6.69,5.85-13.52,9.28-20.5,8.56-17.44,17.67-33.75,27.33-48.92,4.94-7.76,11.37-17.08,19.3-27.96,7.87-10.82,18.24-23.2,31.09-37.14,12.98-14.07,25.57-26.16,37.76-36.25,15.02-12.41,25.49-21.02,40.06-30.63Z" style="fill:rgba(30,29,29,.99);"/><path d="M599.06,140.61l.02-1.02c.33-2.12,.64-4.14,.52-6.32-.46-8.12-1.24-16.01-2.35-23.66-.72-4.98,1.11-10.68,6.91-10.58,3.63,.07,6.16,2,7.61,5.81,1.32,3.47,2.17,7.48,2.56,12.03,.54,6.36,.72,12.11,.53,17.24-.15,4.07-.22,6.36-.21,6.89,.03,2.37,.4,3.8,1.11,4.29,1.74,1.17,4.15,1.08,5.96,.29,7.2-3.11,16.18-10.32,18.51-18.49,.92-3.23,1.57-7.02,1.96-11.35,.35-3.83,3.16-7.23,7.28-7.42,5.18-.25,7.42,4.59,7.25,9.05-.23,5.93-1.18,11.49-2.84,16.69-4.58,14.37-16.45,21.99-29.61,27.35-11.37,4.63-19.1,7.84-23.17,9.61-8.55,3.71-18.23,9.18-29.05,16.4-9,6.01-16.67,13.18-23.02,21.49-.12,.15-.09,.37,.06,.49,.12,.1,.29,.1,.42,0,9.63-6.95,20.22-12.34,31.77-16.18,4.89-1.62,10.03-3.07,15.44-4.34,1.37-.32,2.61-.23,3.71,.28,.31,.14,.56,.4,.69,.71,.63,1.5,.88,3.54,.73,6.12-.25,4.53-.87,8.75-1.85,12.68-2.79,11.21-9.25,19.17-19.36,23.89-3.55,1.66-6.23,2.25-10.15,3.49-.09,.03-.19,.04-.28,.04l-13.55,.07c-.49,0-.89,.4-.89,.89,0,.1,.02,.21,.06,.31,6.63,17.7,11.08,35.93,13.36,54.68,.47,3.87,.73,6.59,.78,8.16,.11,3.79,.87,6.76,.91,10.87,.14,12.83,.11,20.59-.08,23.28-1.23,17.18-4.74,33.84-10.53,49.97-5.89,1.1-11.17,.62-15.84-1.44-16.77-7.39-30.56-11.98-49.69-18.92-20.78-7.55-43.04-6.13-65.16-3.2-7.15,.94-12.45,1.35-15.9,1.23-17-.59-35.27-.36-54.68-2.16-11.93-1.11-16.95-1.2-28.79-1.96-14.42-.93-27.95-4.06-43.5-7.04-17.89-3.43-33.64-3.17-51.32,3.26-2.97,1.09-7.5,2.67-13.58,4.75-2.5,.86-4.86,1.35-7.07,1.48-.56,.03-1.03-.39-1.07-.95,0-.15,.02-.31,.08-.45,3.28-7.72,15.41-11.75,22.71-15.24,14.15-6.76,28.33-10.82,43.93-11.78,1.83-.11,4.21-.64,7.12-1.57,20.85-.61,35.76-.55,44.74,.16,8.37,.67,21.94,1.8,40.71,3.4,13.6,1.16,26.18-1.71,41.24-4.77,4.5-.91,9.1-1.51,13.79-1.79,11.24-.68,22.16,2.41,32.66,6.71,1.16,.47,2.49,.22,3.39-.64,9.01-8.56,15.94-18.66,20.8-30.3,.41-.98,1.44-1.54,2.48-1.37,6.31,1.06,9.69,1.63,10.12,1.71,8.17,1.48,15.19,1.68,23.73,2.62,1.16,.13,2.33-.06,3.38-.56,4.65-2.18,7.95-6.45,11.32-9.98,.34-.35,.33-.91-.02-1.24-.16-.15-.37-.24-.6-.25-3.45-.06-6.19,.05-8.2,.34-6.69,.96-9.72,.83-17.61,1.41-8.46,.61-17.01,.07-25.45,.11-2.65,0-6.45-.21-11.41-.66-3.96-.37-7.74-.78-11.34-1.25-1.57-.21-3.93-.91-7.09-2.1-2.62-.99-4.96-2.65-7.03-4.96-4.94-5.51-5.53-11.67-1.77-18.47,2.78-5.03,6.14-10.07,10.09-15.12,5.26-6.74,10.18-12.89,14.76-18.45,.19-.23,.43-.42,.71-.55,1.03-.47,1.44-1.4,1.23-2.78-.1-.7-.56-1.1-1.38-1.19-5.48-.65-8.78-3.11-12.37-7.76-3.47-4.49-7.54-9.89-12.23-16.2-4.03-5.42-6.47-11.81-4.96-18.5,.24-1.09,1.23-1.84,2.34-1.77,14.01,.78,28.65,7.32,40.17,15.23,2.75,1.88,5.27,4.38,8.22,5.87,.18,.09,.39,.03,.49-.15,.05-.1,.06-.21,.01-.31-.27-.67-.42-1.38-.46-2.12-.02-.4-.17-.78-.42-1.09-.33-.41-.95-1.68-1.85-3.83-3.76-8.98-12.02-15.75-21-18.87-14.36-4.98-26.45-8.28-36.2-18.54-4.18-4.4-11.72-16.66-7.06-22.75,.9-1.17,2.2-1.92,3.9-2.25,4.29-.82,7.16,.94,8.61,5.28,1.23,3.72,2.39,6.31,3.48,7.77,6.72,9.05,14.35,11.64,24.87,14.77,.73,.21,1.49-.2,1.7-.92,.07-.23,.07-.47,.02-.7-.87-3.69-2.01-7.42-3.42-11.18-2.93-7.85-6.37-12.65-12.44-22.94-4.04-6.85-5.91-14.38-5.6-22.57,.37-9.96,4.36-17.85,11.96-23.67,2.93-2.25,8.83-3.95,11.55-.41,3.52,4.58-.61,8.6-3.74,12.32-5.62,6.71-5.81,16.76-2.01,24.3,1.99,3.95,5.31,5.76,8.73,2.05,1.29-1.4,2.8-3.71,4.54-6.94,4.98-9.24,8.36-15.45,10.14-18.63,2.48-4.44,7.12-9.22,12.58-7.5,2.45,.77,3.93,2.12,4.45,4.06,1.4,5.21-2.7,9.55-6.32,15.15-9.08,14.06-16.61,28.34-17.47,44.27-.29,5.38,.9,10.18,3.57,14.39,10.45,16.5,25.59,4.58,40.11,3.81,1.37-.07,2.57,.55,3.01,1.55,.58,1.32,.17,2.65-1.24,3.99-.28,.27-.62,.48-.99,.62-8.84,3.33-14.23,5.4-16.17,6.21-1.88,.79-3.26,1.57-4.15,2.34-2.29,2-1.09,7.89-.18,10.13,1.49,3.69,2.97,6.62,4.44,8.78,1.29,1.88,3.04,.54,4.67,.49,5.21-.17,10.29,.39,15.25,1.69,.81,.21,1.67-.09,2.18-.76,1.67-2.2,3.42-4.27,5.26-6.2,7.49-7.88,15.08-15.12,22.76-21.72,2.76-2.36,2.09-5.67,1.64-9.5-.34-2.86-1.76-8.23-4.25-16.12-1.28-4.04-2.71-10.69,2.38-12.69,5.43-2.13,9.02-.29,10.75,5.5,1.21,4.05,2.77,9.66,4.67,16.81,.35,1.31,.85,2.22,1.5,2.71,.77,.58,1.66,.66,2.66,.23,3.37-1.45,6.92-3.38,10.64-5.79,6.25-4.05,9.44-9.95,9.58-17.7Zm-81.28,97.52c-2.76-1.03-5.88-1.39-9.35-1.06-3.78,.36-7.64,1.66-11.57,3.91-.97,.55-1.29,1.35-.98,2.38,.06,.22,.23,.38,.45,.44,2.32,.65,4.68,1.22,7.07,1.71,6.28,1.26,11.04-1.27,14.82-5.71,.37-.45,.32-1.12-.13-1.49-.09-.08-.2-.14-.31-.18Z" style="fill:rgba(39,38,39,.99);"/><path d="M599.08,139.59l-.02,1.02,.02-1.02Z" style="fill:rgba(30,29,29,.99);"/><path d="M805.15,170.21c22.22,28,40.76,58.1,55.62,90.31,3.39,12.35,6.89,24.6,10.49,36.74,2.78,9.39,4.9,20.68,1.83,29.96-2.87,8.66-11.22,12.92-18.33,5.25-4.04-4.36-6.62-9.58-9.18-15.57-4.63-10.81-9.68-21.39-15.15-31.75-1.55-3.34-3.11-6.66-4.68-9.95-5.52-11.55-11.49-22.87-17.91-33.96-5.27-9.11-12.75-20.38-22.43-33.8,8.74,2.99,15.89,4.22,20.43-5.88,2.35-5.23,3.13-10.82,2.32-16.76-.71-5.23-1.71-10.09-3.01-14.59Z" style="fill:rgba(39,38,39,.99);"/><path d="M860.77,260.52c22.54,47.15,36.61,97.89,41.78,150.01,.28,2.86,.42,4.76,.41,5.69-.03,2.88,.77,5.41,.84,8.53,.17,7.51,.55,15,1.16,22.49v17.09l-.5,6.6c-1.25,8.22-3.04,16.28-5.38,24.17-6.63,22.43-23.23,16.2-35.29,3.76,.25-3.54,.14-7.47,.68-10.66,.46-2.69,.65-5.36,.57-7.99-.09-3.41,.74-6.3,.81-10.03,.17-8.51,.19-17.83,.06-27.96-.03-2.63-.21-5.35-.54-8.15-.48-4.15-.09-7.25-.7-10.93-.41-2.46-.64-5.33-.71-8.6-.06-2.78-.98-4.86-.93-7.42,.02-.91-.05-1.91-.2-2.99-1.39-9.63-2.64-17.73-3.76-24.3-5.57-32.8-15.12-64.36-28.64-94.68,5.47,10.36,10.52,20.94,15.15,31.75,2.56,5.99,5.14,11.21,9.18,15.57,7.11,7.67,15.46,3.41,18.33-5.25,3.07-9.28,.95-20.57-1.83-29.96-3.6-12.14-7.1-24.39-10.49-36.74Z" style="fill:rgba(30,29,29,.99);"/><path d="M287.51,330.34c-2.91,.93-5.29,1.46-7.12,1.57-15.6,.96-29.78,5.02-43.93,11.78-7.3,3.49-19.43,7.52-22.71,15.24-.22,.51,.03,1.11,.54,1.32,.14,.06,.3,.09,.45,.08,2.21-.13,4.57-.62,7.07-1.48,6.08-2.08,10.61-3.66,13.58-4.75,17.68-6.43,33.43-6.69,51.32-3.26,15.55,2.98,29.08,6.11,43.5,7.04,11.84,.76,16.86,.85,28.79,1.96,19.41,1.8,37.68,1.57,54.68,2.16,3.45,.12,8.75-.29,15.9-1.23,22.12-2.93,44.38-4.35,65.16,3.2,19.13,6.94,32.92,11.53,49.69,18.92,4.67,2.06,9.95,2.54,15.84,1.44-3.63,10.8-7.91,20.39-12.82,28.77-5.25,8.95-9.13,15.31-11.66,19.07-.89,1.34-3.52,4.93-7.88,10.78-2.61,3.5-5.45,6.92-8.52,10.27-6.19,6.74-9.43,10.27-9.74,10.58-12.1,12.26-26.75,23.88-42.93,31.55-4.49,2.13-8.32,3.61-11.51,4.46-.42,.11-.8,.13-1.15,.04-.26-.07-.45-.3-.46-.57-.35-9.19,1.03-18.19,1.61-28.1,.45-7.63,.98-14.43,1.59-20.38,.45-4.41,.32-7.89-.02-11.81-.01-.19-.18-.34-.37-.33-.12,0-.23,.08-.29,.19l-1.15,2.06c-6.44,19.38-11.7,43.6-14.64,56.79-1.64,7.37-3.9,17.46-9.74,23.26-7.13,7.08-18.29-.32-23.09,10.03-.39,.83-1.44,3.46-3.17,7.87-.1,.26-.39,.39-.65,.28-.11-.04-.2-.12-.26-.22-.21-.37-.35-.99-.43-1.88-.19-2.26-.42-8-.67-17.22-.04-1.41-.47-3.29-1.29-5.64l.12-8.72c.02-1.13-.89-2.06-2.02-2.08-.13,0-.26,0-.39,.03-1.26,.21-2.45,.23-3.56,.04-3.97-.69-9.6-.19-14.45-.76-4.95-.59-10.54-.79-16.77-.61-2.3,.07-5.62-1.09-8.35-1.03-2.19,.05-4.4-.14-6.64-.56-2.46-.46-5.58-.44-7.51-.45-.56,0-1.12-.08-1.66-.22-2.08-.53-4.09-.79-6.04-.76-2.58,.04-4.51-.91-7.34-.95-1.75-.03-3.59-.21-5.52-.56-6.99-1.26-13.28-1.81-20.97-3.62-.45-.1-.73-.56-.63-1.02,.01-.05,.03-.1,.05-.14,6.56-15.2,11.44-30.03,13.71-46.65,.44-3.25,.88-6.52,1.32-9.8,.86-6.5,.92-13.97,1.61-20.96,.19-1.94,.05-3.61-.42-5.01-.07-.23-.32-.36-.55-.29-.14,.04-.25,.15-.29,.29l-4.31,12.48c-1.41,2.39-2.67,5.39-3.79,8.98-5.04,16.08-8.46,26.91-10.27,32.5-.53,1.64-1.19,3.26-1.98,4.86-.14,.27-.25,.56-.34,.86-2.03,6.87-3.97,12.45-5.8,16.74-1.65,3.85-4.39,8.63-8.23,14.35-8.15,12.12-16.53,24.01-24.38,30.91-7.13,6.27-14.28,12.53-21.46,18.78-10.1,8.79-16,19.43-18.32,32.88-1.9,11.04-3.26,20.11-4.86,32.3-.63,4.81-1.64,10.77-5.89,13.27-5.54,3.24-7.71-2.2-7.71-6.66,0-17.39,.32-31.82,.94-43.29,.3-5.57,.09-9.36,.43-14.16,.21-2.86,.32-6.39,.33-10.58,.03-8.19,.17-13.11,.4-14.76,.28-1.96,.73-3.33,1.34-4.1,4.94-6.2,8.82-11.48,11.64-15.85,2.97-4.58,5.22-10.05,6.76-16.41,.51-2.12,.5-4.63,.7-7.39,.73-9.6-1.27-17.28-6.25-25.72-3.29-5.57-5.78-10.45-7.47-14.66-5.5-13.73-9.94-27.95-13.32-42.66-.4-1.71-1.37-3.76-2.92-6.14,.39-2.12,.09-3.2-2.16-3.64-3.56-.71-5.92-1.09-6.7-5.48-1.18-6.62,3.39-13.45,7.3-18.96,16.63-23.42,46.53-41.01,75.78-45.99,7.13-1.21,14.9-2.04,23.32-2.47Z" style="fill:rgba(30,29,29,.99);"/><path d="M803.13,402.43l5.81,3.99c.62,.43,.94,1.17,.82,1.91-1.54,9.16-3.36,16.2-9.58,22.86-16.61,17.79-35.11,29.51-59.75,34.96-4.57,1.01-9.85,2.03-15.86,3.05-4.01,.69-9.49,2.42-12.92,4.57-9.27,5.81-15.64,9.22-24.75,12.06-12.66,3.94-24.03,.09-34.6-7.38-7.23-5.11-13.89-11.25-19.99-18.41-1.61-1.9-3.06-4.11-4.33-6.64-3.16-6.28-8.95-13.59-.1-19.08,4.58-.21,8.3,0,11.16,.65,22.76,5.09,41.76,16.36,57.01,33.82,.4,.45,1.12,1.4,2.17,2.83,.66,.91,1.42,1.82,2.29,2.74,.37,.39,.99,.42,1.38,.05,.2-.19,.31-.45,.31-.72l-.43-49.31c0-.39-.08-.77-.24-1.12-4.96-11.36-8.45-23.37-9.43-35.67-.09-1.18-.14-4.67-.14-10.46,0-13.24,3.8-26.4,10.52-37.5,1.6-2.65,3.49-4.77,5.66-6.35,1.37-.99,2.74-.99,4.13,.02,2.08,1.51,3.94,3.56,5.58,6.17,7.18,11.39,11.26,23.69,12.23,36.89,.28,3.81,.66,5.94,.51,8.98-.47,9.38-2.01,17.9-4.61,25.56-1.1,3.24-4.64,10.58-4.89,15.89-.26,5.45-.3,11.26-.11,17.41,0,.26,.23,.47,.5,.46,.08,0,.16-.02,.22-.06,1.2-.69,2.01-1.58,2.42-2.66,.11-.28,.25-.55,.44-.79,13.57-17.13,32.98-30.88,54.35-36.08,6.67-1.63,13.27-2.58,19.8-2.86,1.52-.06,2.99,.01,4.42,.22Z" style="fill:rgba(30,29,29,.99);"/><path d="M863.79,498.86c12.06,12.44,28.66,18.67,35.29-3.76,2.34-7.89,4.13-15.95,5.38-24.17-.27,3.2-.46,8.53-.57,15.99-.02,1.62-.68,4.01-.77,5.95-.37,7.6-1.27,16.35-2.7,26.24-7.75,53.55-24.59,103.87-50.54,150.97-1.25,2.25-3.48,6.34-6.71,12.25-1.47,2.7-3.21,5.63-5.21,8.78-5.45,8.57-9.8,15.3-13.06,20.21-5.28,7.93-11.66,16.54-19.13,25.82-8.44,10.48-19.4,22.68-32.87,36.59-8.23,8.49-20.06,19.19-35.5,32.09-1.75,1.45-5.31,4.18-10.68,8.19-4.05,3.02-7.67,5.67-10.86,7.96-6.61,4.73-16.89,11.37-30.84,19.92-18.88,11.56-41.72,22.64-68.52,33.24-3.02,1.2-7.09,2.75-12.21,4.64-.29,.11-.6,.19-.91,.24-1.91,.33-3.73,.95-5.47,1.84-.64,.33-2.13,.19-3.04,.68-1.68,.91-3.39,1.48-5.13,1.7-.35,.05-.69,.15-1,.3-2.59,1.23-4.98,1.53-7.42,2.35-3.01,1.01-6.68,2.06-11.02,3.13-3.02,.75-5.66,1.97-8.58,2.2-.32,.03-.63,.09-.92,.2-2.79,.99-5.19,1.56-7.18,1.73-.57,.05-1.13,.18-1.65,.41-1.97,.85-4.62,1.44-7.95,1.77-.07,0-1.5,.33-4.29,.96-4.1,.94-8.21,1.1-12.2,2.27-.79,.23-1.61,.37-2.43,.41-5.2,.28-11.19,1.99-16,2.14-2.43,.08-5.3,.44-8.63,1.07-6.67,1.27-11.55,.82-18.88,1.49-2.21,.21-5.64,.36-10.3,.45-12.17,.24-25.44,.19-39.81-.16-3.45-.08-6.13-.23-8.03-.46-4.39-.52-8.24-.37-12.78-1.11-2.88-.47-5.8-.06-8.55-.89-2.69-.81-6.32-.37-9.41-.88-3.93-.65-7.76-1.2-11.48-1.63-3.13-.37-6.82-1.34-10-1.79-1.91-.27-4.41-.73-7.5-1.37-49.54-10.23-96.35-28.17-140.43-53.81-14.11-8.21-28.14-17.67-42.09-28.4-2.19-1.68-5.27-4.02-9.24-7.03-4.17-3.16-7.42-6.3-11.49-9.72-12.42-10.42-25.42-22.9-39-37.43-12-12.84-23.32-26.65-33.96-41.42-24.29-33.71-43.78-69.93-58.49-108.67-9.97-26.27-17.29-53.85-21.94-82.73-2.34-14.53-3.91-27.35-4.7-38.45-.37-5.17-.84-14.98-1.43-29.44v-7.14c3.82,12.97,4.09,25.76,5.1,40.32,.94,13.62,2.52,25.19,6.03,35.28,.27,.78,.58,1.32,.92,1.62,.36,.32,.9,.28,1.21-.07,.08-.09,.14-.19,.18-.31,1.69-5.13,.45-11.94,9.78-9.52,1.67,.43,4.46,1.29,8.37,2.57,4.3,1.41,8.53,2.06,11.34-1.67,5.45,32.46,14.64,62.68,27.33,93.11,11.43,27.4,26.23,53.77,43.53,77.91,10.4,14.52,20.87,27.87,31.42,40.05,.84,.96,2.19,1.28,3.36,.78,9.63-4.07,18.99-7.86,28.07-11.39,2.01-.78,3.18-1.18,3.53-1.21,.22-.02,.43-.08,.63-.19,1.87-1.01,3.51-1.61,4.9-1.81,.8-.11,1.39-.78,1.41-1.59,.12-6.36-.98-13.01-2.51-26.17-.59-5.05-.47-9.87,.36-14.47,2.47-13.81,4.05-21.3,5.13-34.34,1.11-13.35,2.27-27.64,3.46-42.87,.35-4.44,.52-8.11,.53-11.01,0-3.11,.17-5.56,.5-7.34,1-5.37,.23-11.28,.77-16.89,.81-8.47,.69-14.84,.74-23.14,0-.22,.03-.44,.09-.66l1-3.7c.05-.18,.14-.36,.26-.51,3.94-4.77,7.44-9.29,10.51-13.54,6.76-9.39,9.83-19.95,9.2-31.69-.14-2.61-.58-4.71-1.33-6.3-.49-1.03-3.38-7.04-8.69-18.03-5.95-12.33-10.47-24.09-13.56-35.29-1.77-6.45-3.29-14.33-4.56-23.63,1.55,2.38,2.52,4.43,2.92,6.14,3.38,14.71,7.82,28.93,13.32,42.66,1.69,4.21,4.18,9.09,7.47,14.66,4.98,8.44,6.98,16.12,6.25,25.72-.2,2.76-.19,5.27-.7,7.39-1.54,6.36-3.79,11.83-6.76,16.41-2.82,4.37-6.7,9.65-11.64,15.85-.61,.77-1.06,2.14-1.34,4.1-.23,1.65-.37,6.57-.4,14.76-.01,4.19-.12,7.72-.33,10.58-.34,4.8-.13,8.59-.43,14.16-.62,11.47-.93,25.9-.94,43.29,0,4.46,2.17,9.9,7.71,6.66,4.25-2.5,5.26-8.46,5.89-13.27,1.6-12.19,2.96-21.26,4.86-32.3,2.32-13.45,8.22-24.09,18.32-32.88,7.18-6.25,14.33-12.51,21.46-18.78,7.85-6.9,16.23-18.79,24.38-30.91,3.84-5.72,6.58-10.5,8.23-14.35,1.83-4.29,3.77-9.87,5.8-16.74,.09-.3,.2-.59,.34-.86,.79-1.6,1.45-3.22,1.98-4.86,1.81-5.59,5.23-16.42,10.27-32.5,1.12-3.59,2.38-6.59,3.79-8.98-3.87,13.07-7.65,26.16-11.34,39.27-1.99,7.05-4.39,14.11-7.2,21.19-9.33,23.48-25.64,42.74-44.32,59.17-3.78,3.32-6.41,5.7-7.89,7.13-.18,.18-.4,.31-.64,.4-.02,0-.04,.02-.07,.03-.33,.14-.63,.34-.89,.6-2.55,2.54-4.87,4.59-6.97,6.15-2.53,1.89-4.71,4.31-6.56,7.26-.17,.28-.31,.57-.4,.88-1.83,5.79-2.99,10.27-3.48,13.44-2.06,13.35-6.14,42.03-12.25,86.02-1.49,10.69-2.36,20.83-1.02,32.48,.53,4.61,.53,7.79,.51,12.06,0,.83,.68,1.51,1.51,1.51,.25,0,.51-.07,.73-.19,1.67-.95,3.28-1.58,4.81-1.89,1.38-.29,2.37-.52,2.97-.71,37.73-11.39,76.23-19.26,115.49-23.61,.53-.06,.92-.53,.87-1.06-.41-5.25-1.43-10.25-3.05-14.99-1.13-3.29-3.51-7.78-7.15-13.47-10.37-16.23-19.6-30.57-27.68-43.03-10.66-16.41-19.42-29.5-26.27-39.26-2.77-3.95-4.72-6.94-5.83-8.95-2.37-4.3-3.29-8.02-.33-12.38,1.77-2.6,6.22-9.07,13.35-19.41,2.8-4.07,7.16-11.29,13.08-21.67,1.8-3.15,3.2-4.63,6.84-4.38,9.16,.64,18.86,1.62,29.1,2.93,.55,.07,.95,.57,.88,1.12,0,.02,0,.04-.01,.07-.21,1.06-.53,2.02-.96,2.87-5.67,11.35-13.95,26.51-24.82,45.5-1.71,3-1.96,4.4-.69,7.41,3.81,9.01,8.08,18.16,12.81,27.43,9.94,19.47,21.3,41.07,34.07,64.8,3.34,6.2,7.56,14.81,10.06,20.54,.07,.16,.11,.33,.12,.5,.14,1.86,1.14,2.68,2.99,2.46,3.09-.36,4.51-.88,7.53-.87,4.45,.02,9.16-.19,14.13-.64,.37-.04,.7-.29,.83-.64,.8-2.16,.46-4.2,1.21-6.35,.23-.67,.37-1.11,.4-1.34,.51-3.58,1.2-7.61,2.08-12.09,3.15-16.14,6.36-34.52,9.63-55.13,1.61-10.13,1.45-20.6,2.18-29.94,.49-6.16-.13-14.69,1.05-22.27,.03-.17,.04-.35,.05-.52l1.15-37.08c.82,2.35,1.25,4.23,1.29,5.64,.25,9.22,.48,14.96,.67,17.22,.08,.89,.22,1.51,.43,1.88,.14,.24,.45,.33,.69,.19,.1-.06,.18-.15,.22-.25,1.73-4.41,2.78-7.04,3.17-7.87,4.8-10.35,15.96-2.95,23.09-10.03,5.84-5.8,8.1-15.89,9.74-23.26,2.94-13.19,8.2-37.41,14.64-56.79-2.93,11.74-5.6,23.56-7.99,35.47-4.5,22.45-9.71,48.93-15.63,79.45-1.8,9.27-3.55,16.17-5.25,20.71-2.23,5.95-3.55,10.02-3.98,12.21-5.19,26.48-12.94,64.29-17.45,87.87-.14,.72,.34,1.42,1.07,1.56,.09,.02,.18,.02,.26,.02,9.71-.17,20.78-.17,33.21-.01,6.6,.08,12.45,1.16,19.09,1.04,.05,0,.1,0,.15,.01l9.42,1.02c.77,.09,1.46-.47,1.55-1.23,.02-.17,0-.35-.04-.52-.2-.74-.3-1.54-.3-2.4-.12-21.72,.21-33.27-.66-51.89-.47-10.06,.08-23.37-1.06-35.33-.13-1.33-.35-2.8-.67-4.39-3.44-17.13-7.7-37.66-12.77-61.58-.71-3.39-1.2-5.94-1.45-7.65-.18-1.22,.27-2.44,1.19-3.25,1.03-.92,2.41-1.71,4.12-2.37,10.83-4.17,21.33-9.24,31.51-15.23,.27-.16,.57-.25,.88-.28l1.21-.12c.68-.07,1.29,.43,1.36,1.12,0,.07,0,.13,0,.2-.67,11.28-1.16,18.22-1.47,20.81-.56,4.67-.2,9.65-.75,13.9-.92,7.07-.19,11.96-.96,19.02-.53,4.93-.75,10.41-.66,16.43,.06,4.19-.85,9.15-.92,12.61-.33,17.93-.33,37.6,.02,59.01,.05,3.41,.24,6.41,.55,9,.47,3.87,.3,7.39,.84,11.94,.36,3.09,.89,7.97,1.59,14.63,.28,2.69,1.01,4.77,.93,7.58-.03,.95,.72,1.74,1.68,1.77h.01c2.75,.05,4.87,.18,6.35,.37,17.37,2.36,30.63,3.88,45.04,6.54,34.52,6.37,66.73,14.46,96.64,24.29,11.25,3.69,18.23,6.05,20.96,7.06,6.52,2.43,10.05,3.72,10.59,3.89,.99,.32,2.12,.71,3.39,1.18,6.93,2.54,13.84,5.38,20.71,8.52,.05,.02,.1,.04,.15,.05l2.83,.74c.49,.13,.99-.17,1.12-.66,.02-.07,.03-.15,.03-.23l.44-123.89c0-.99-.8-1.79-1.79-1.79-.03,0-.06,0-.09,0-5.57,.26-10.92-.28-16.05-1.62-.95-.25-1.93-.39-2.91-.43-3.78-.14-7.4-1.63-10.97-2.22-.35-.06-.69-.16-1.02-.31-1.82-.82-3.45-1.33-4.88-1.53-.33-.04-.65-.15-.93-.32-1.47-.87-2.94-1.44-4.39-1.69-.36-.07-.71-.2-1.03-.39-1.74-1.06-3.41-1.4-4.99-2.12-11.76-5.31-21.98-12.72-30.67-22.23-6.1-6.68-10.37-14.25-12.8-22.7-.51-1.78-.49-3.78,.06-6.01,.11-.46,.43-.85,.87-1.05,1.87-.86,3.68-1.33,5.44-1.42,10.15-.48,19.98,.62,29.5,3.29,11.55,3.25,22.5,8.14,32.83,14.67,8.04,5.08,14.92,10.85,20.65,17.3,.3,.34,.65,.62,1.03,.83l.92,.5c.32,.17,.72,.05,.89-.27,.05-.09,.08-.19,.08-.3l.26-72.83c0-1.07-.76-2-1.82-2.21l-6.27-1.24-.08-.02-6.65-1.8c-.35-.09-.69-.21-1.02-.35-.07-.03-1.58-.59-4.52-1.66-12.55-4.57-24.08-11.19-34.57-19.85-11.69-9.64-21.45-21.43-25.28-35.96-1.66-6.28-1.04-9.58,6.23-9.85-8.85,5.49-3.06,12.8,.1,19.08,1.27,2.53,2.72,4.74,4.33,6.64,6.1,7.16,12.76,13.3,19.99,18.41,10.57,7.47,21.94,11.32,34.6,7.38,9.11-2.84,15.48-6.25,24.75-12.06,3.43-2.15,8.91-3.88,12.92-4.57,6.01-1.02,11.29-2.04,15.86-3.05,24.64-5.45,43.14-17.17,59.75-34.96,6.22-6.66,8.04-13.7,9.58-22.86,.12-.74-.2-1.48-.82-1.91l-5.81-3.99,8.01,1.88c.26,.07,.49,.21,.66,.41,3.13,3.78-.28,11.44-2.18,15.71-4.02,9.03-9.48,17.14-16.73,23.53-2.76,2.43-4.93,4.62-7.75,6.67-12.21,8.9-25.2,15.36-38.97,19.38-3.21,.94-4.87,1.45-5,1.52-.13,.07-.27,.12-.42,.15l-10.18,2.1c-.19,.04-.39,.07-.59,.08l-7.81,.62c-.78,.06-1.38,.72-1.37,1.5,.15,14.45,.14,28.16-.04,41.13-.05,3.36-.27,7.11-.66,11.26-.04,.49,.32,.93,.81,.98,.27,.02,.55-.08,.74-.28,4.09-4.32,6.87-7.59,11.1-11.27,19.78-17.23,43.84-27.04,70.19-25.59,3.03,.17,5.79,.84,8.26,2.03,1.08,.52,1.79,1.58,1.85,2.78,.34,6.49-3.65,13.96-7.29,19.08-6.09,8.57-13.83,16.11-23.21,22.62-7.57,5.26-15.67,9.48-24.31,12.66-2.95,1.09-6.53,2.23-10.75,3.44-2.4,.69-4.8,1.19-7.2,1.52-3.41,.46-5.9,.96-7.47,1.51-.19,.06-.38,.09-.57,.1l-10.4,.43c-.78,.03-1.4,.67-1.4,1.45l-.65,183.31c0,.33,.14,.65,.38,.88,1.62,1.52,3.73,1.84,5.53,2.68,4.17,1.94,6.95,3.22,8.32,3.85,1.57,.71,2.57,2.02,4.75,1.83,.39-.04,.76-.21,1.04-.49,12.19-12.43,19.62-20.22,22.29-23.39,3.13-3.71,5.82-6.86,8.06-9.44,2.75-3.15,5.4-6.33,7.94-9.53,12.85-16.19,24.44-33.39,34.75-51.6,2.49-4.4,5.45-10.02,8.86-16.86,4.2-8.42,6.98-14.12,8.35-17.09,7.59-16.48,12.5-31.28,19.07-52.14,6.31-20.07,10.1-40.59,13.32-62.69,.42-2.92,.44-6.88,1.33-10.29Zm-140.22,268.02c.27-.24,.3-.65,.07-.92-.06-.07-.13-.12-.22-.16-24.29-11.39-48.88-21.09-73.78-29.1-50.36-16.21-101.09-27.45-154.18-33.19-37.41-4.05-76.95-4.86-118.63-2.45-39.34,2.28-80.21,8.21-122.62,17.78-22.87,5.16-43.98,11.34-63.33,18.53-14.76,5.48-22.95,8.59-24.56,9.34-1.35,.62-2.3,1.14-2.86,1.56-.35,.26-.42,.75-.17,1.1,.05,.06,.1,.12,.17,.17,4.58,3.38,9.88,9.12,14.43,13.03,49.75,42.83,105.93,72.86,168.52,90.09,14.53,4,30.82,7.35,48.85,10.05,4.91,.73,11.39,1.44,19.46,2.12,10.45,.88,16.95,1.37,19.48,1.46,59.69,2.3,117.34-7.54,172.95-29.52,14.1-5.57,27.22-11.53,39.36-17.88,28.21-14.76,53.9-32.1,77.06-52.01Z" style="fill:rgba(22,21,22,.99);"/><path d="M723.57,766.88c-23.16,19.91-48.85,37.25-77.06,52.01-12.14,6.35-25.26,12.31-39.36,17.88-55.61,21.98-113.26,31.82-172.95,29.52-2.53-.09-9.03-.58-19.48-1.46-8.07-.68-14.55-1.39-19.46-2.12-18.03-2.7-34.32-6.05-48.85-10.05-62.59-17.23-118.77-47.26-168.52-90.09-4.55-3.91-9.85-9.65-14.43-13.03-.35-.26-.42-.75-.17-1.1,.05-.06,.1-.12,.17-.17,.56-.42,1.51-.94,2.86-1.56,1.61-.75,9.8-3.86,24.56-9.34,19.35-7.19,40.46-13.37,63.33-18.53,42.41-9.57,83.28-15.5,122.62-17.78,41.68-2.41,81.22-1.6,118.63,2.45,53.09,5.74,103.82,16.98,154.18,33.19,24.9,8.01,49.49,17.71,73.78,29.1,.33,.15,.47,.54,.31,.86-.04,.08-.09,.16-.16,.22Zm-335.28-35.3c.04-4.9-3.9-8.91-8.8-8.96l-10.96-.1c-4.9-.04-8.91,3.9-8.96,8.8h0v1.16c-.05,4.9,3.89,8.91,8.79,8.96l10.96,.1c4.9,.04,8.91-3.9,8.96-8.8h0v-1.16Zm110.05,5.47c.08-5.37-4.22-9.79-9.59-9.86h0l-16.92-.24c-5.37-.08-9.79,4.22-9.86,9.59l-.02,1.12c-.08,5.37,4.22,9.79,9.59,9.86l16.92,.24c5.37,.08,9.79-4.22,9.86-9.59l.02-1.12Zm-202.02,10.88c.1-5.31-4.12-9.7-9.43-9.8h0l-28.59-.55c-5.31-.1-9.7,4.12-9.8,9.43h0l-.02,.84c-.1,5.31,4.12,9.7,9.43,9.8h0l28.59,.55c5.31,.1,9.7-4.12,9.8-9.43h0l.02-.84Zm333.18,8.54c.07-5.31-4.17-9.68-9.48-9.75l-31.24-.44c-5.31-.07-9.68,4.17-9.75,9.48v.8c-.09,5.31,4.16,9.68,9.47,9.75l31.24,.44c5.31,.07,9.68-4.17,9.75-9.48v-.8Zm-208.49,9.9c.13-4.08-3.07-7.49-7.15-7.62l-7.34-.23c-4.08-.13-7.49,3.07-7.62,7.15h0l-.03,1.06c-.13,4.08,3.07,7.49,7.15,7.62l7.34,.23c4.08,.13,7.49-3.07,7.62-7.15h0l.03-1.06Zm-61,14.86c.08-5.39-4.23-9.82-9.62-9.9l-15.46-.22c-5.39-.08-9.82,4.23-9.9,9.62h0l-.02,1.18c-.08,5.39,4.23,9.82,9.62,9.9l15.46,.22c5.39,.08,9.82-4.23,9.9-9.62h0l.02-1.18Zm217,7.84c.09-5.35-4.17-9.76-9.52-9.86h0l-35.87-.63c-5.35-.09-9.76,4.17-9.86,9.52v.74c-.11,5.35,4.16,9.76,9.51,9.86h0l35.87,.63c5.35,.09,9.76-4.17,9.86-9.52v-.74Zm-99.33,26.55c0-5.48-4.43-9.94-9.91-9.95h0l-13.56-.02c-5.48,0-9.94,4.43-9.95,9.91v1.26c-.01,5.48,4.43,9.94,9.91,9.95h0l13.56,.02c5.48,0,9.94-4.43,9.95-9.91v-1.26Z"/><rect x="364.47" y="717.67" width="18.92" height="28.72" rx="8.88" ry="8.88" transform="translate(-361.34 1099.56) rotate(-89.5)" style="fill:rgba(22,21,22,.99);"/><rect x="469.85" y="719.16" width="20.58" height="36.38" rx="9.73" ry="9.73" transform="translate(-263.85 1207.15) rotate(-89.2)" style="fill:rgba(22,21,22,.99);"/><rect x="262.35" y="723.96" width="20.08" height="47.84" rx="9.62" ry="9.62" transform="translate(-480.59 1005.87) rotate(-88.9)" style="fill:rgba(22,21,22,.99);"/><rect x="594.23" y="731.27" width="20.04" height="50.48" rx="9.62" ry="9.62" transform="translate(-160.63 1350.14) rotate(-89.2)" style="fill:rgba(22,21,22,.99);"/><rect x="402" y="755.48" width="15.84" height="22.12" rx="7.39" ry="7.39" transform="translate(-369.12 1152.18) rotate(-88.2)" style="fill:rgba(22,21,22,.99);"/><rect x="332.14" y="764.07" width="20.7" height="34.98" rx="9.76" ry="9.76" transform="translate(-443.78 1113.11) rotate(-89.2)" style="fill:rgba(22,21,22,.99);"/><rect x="539.29" y="761.31" width="20.12" height="55.26" rx="9.69" ry="9.69" transform="translate(-249.06 1324.44) rotate(-89)" style="fill:rgba(22,21,22,.99);"/><rect x="450.37" y="799.49" width="21.12" height="33.42" rx="9.93" ry="9.93" transform="translate(-356.08 1275.71) rotate(-89.9)" style="fill:rgba(22,21,22,.99);"/></svg>