<?xml version="1.0" encoding="UTF-8"?><svg xmlns="http://www.w3.org/2000/svg" viewBox="0 0 3374.57 350.47"><path d="M.5,304.27c25.51,27.97,49.49,38.13,66.16,42.35,75.37,19.1,128.23-50.97,195.79-23.28,21.72,8.9,31.79,22.51,54.1,20.19,29.21-3.03,33.71-28.64,63.24-28.19,14.06,.22,38.66,6.42,52.84,9.99,3.2,.81,4.36,1.17,6.3,1.64,11.02,2.63,28.1,5.41,67.33,8.14,120.43,8.38,215.63,6.66,215.63,6.66,337.36,0,291.98-26.05,629.33-26.05s336.07,24.55,673.43,24.55,339.31-27.82,676.67-27.82c92.67,0,159.89,2.72,215.63,6.66,113.44,8.02,138.43,15.27,243.45,22.69,71.63,5.06,141.56-.9,213.68-1.52V.5H.5V304.27Z" style="stroke-miterlimit:10;" preserveAspectRatio="none" fill="#f5fbfe"/></svg>