<?xml version="1.0" encoding="UTF-8"?><svg id="header-line-svg" xmlns="http://www.w3.org/2000/svg" viewBox="0 0 3373.95 46.54"><path d="M.37,.34C25.87,28.3,49.86,38.46,66.53,42.69c75.37,19.1,128.23-50.97,195.79-23.28,21.72,8.9,31.79,22.51,54.1,20.19,29.21-3.03,33.71-28.64,63.24-28.19,14.06,.22,38.66,6.42,52.84,9.99,3.2,.81,4.36,1.17,6.3,1.64,11.02,2.63,28.1,5.41,67.33,8.14,120.43,8.38,215.63,6.66,215.63,6.66,337.36,0,291.98-26.05,629.33-26.05s336.07,24.55,673.43,24.55,339.31-27.82,676.67-27.82c92.67,0,159.89,2.72,215.63,6.66,113.44,8.02,138.43,15.27,243.45,22.69,71.63,5.06,141.56-.9,213.68-1.52" style="fill:none; stroke-miterlimit:10;"/></svg>