<?xml version="1.0" encoding="UTF-8"?><svg xmlns="http://www.w3.org/2000/svg" viewBox="0 0 3374.57 353.78"><path d="M.5,304.27c25.51,27.97,49.49,38.13,66.16,42.35,73.51,18.63,132.06-5.96,195.79-23.28,115.84-31.47,117.42,18.79,332.95,13.02,147.16-3.94,141.33-27.24,269.71-24.38,134.18,2.99,143.41,28.5,263.62,25.9,124.48-2.69,130.14-30.38,254.48-33.52,124.44-3.15,125.75,24.41,263.62,28.95,155.89,5.13,163.51-29.8,323.05-25.9,134.87,3.29,131.54,28.31,270.38,27.74,84.56-.34,86.97-8.97,245.44-17.57,55.88-3.03,123.15-5.12,215.62-5.12s159.89,2.72,215.63,6.66c113.44,8.02,138.43,15.27,243.45,22.69,71.63,5.06,141.56-.9,213.68-1.52V.5H.5V304.27Z" style="stroke-miterlimit:10;" preserveAspectRatio="none"  fill="#f5fbfe"/></svg>