<svg width="16" height="21" viewBox="0 0 16 21" fill="none" xmlns="http://www.w3.org/2000/svg">
<path d="M7.68362 20V16.25V20ZM1.59962 7.98999L1.16962 9.59399C0.827788 10.8709 1.00697 12.2312 1.66779 13.376C2.3286 14.5208 3.41696 15.3564 4.69362 15.699C5.69029 15.967 6.68696 16.234 7.68362 16.5V13.06C7.60411 12.0326 7.20785 11.0551 6.54946 10.2624C5.89106 9.4697 5.00297 8.90075 4.00762 8.63399L1.59962 7.98999Z" fill="#FFC240"/>
<path d="M7.68362 20V16.25M1.59962 7.98999L1.16962 9.59399C0.827788 10.8709 1.00697 12.2312 1.66779 13.376C2.3286 14.5208 3.41696 15.3564 4.69362 15.699C5.69029 15.967 6.68696 16.234 7.68362 16.5V13.06C7.60411 12.0326 7.20785 11.0551 6.54946 10.2624C5.89106 9.4697 5.00297 8.90075 4.00762 8.63399L1.59962 7.98999Z" stroke="#A56000" stroke-width="2" stroke-linecap="round" stroke-linejoin="round"/>
<path d="M9.41253 9.65C10.3295 8.7319 10.8448 7.48758 10.8455 6.19C10.8463 5.54732 10.7201 4.91083 10.4741 4.31707C10.2282 3.7233 9.86746 3.18396 9.41253 2.73L7.68253 1L5.95253 2.73C5.03558 3.6481 4.52023 4.89242 4.51953 6.19C4.52023 7.48758 5.03558 8.7319 5.95253 9.65" fill="#FFC240"/>
<path d="M9.41253 9.65C10.3295 8.7319 10.8448 7.48758 10.8455 6.19C10.8463 5.54732 10.7201 4.91083 10.4741 4.31707C10.2282 3.7233 9.86746 3.18396 9.41253 2.73L7.68253 1L5.95253 2.73C5.03558 3.6481 4.52023 4.89242 4.51953 6.19C4.52023 7.48758 5.03558 8.7319 5.95253 9.65" stroke="#A56000" stroke-width="2" stroke-linecap="round" stroke-linejoin="round"/>
<path d="M13.7686 7.98999L14.1986 9.59399C14.5404 10.871 14.3611 12.2315 13.7001 13.3763C13.039 14.5211 11.9504 15.3566 10.6736 15.699L7.68359 16.5V13.06C7.76317 12.0325 8.15958 11.0549 8.81816 10.2622C9.47675 9.46945 10.3651 8.90057 11.3606 8.63399L13.7686 7.98999Z" fill="#FFC240" stroke="#A56000" stroke-width="2" stroke-linecap="round" stroke-linejoin="round"/>
</svg>
