<svg xmlns="http://www.w3.org/2000/svg" width="24" height="24" viewBox="0 0 24 24" fill="currentColor">
  <path d="M12 0C5.373 0 0 5.373 0 12s5.373 12 12 12 12-5.373 12-12S18.627 0 12 0zm5.568 8.16c-.169 1.58-.896 5.294-1.268 7.031-.158.734-.469.98-.77 1.003-.654.055-1.15-.432-1.784-.847-.99-.651-1.548-.998-2.51-1.597-.963-.599-1.169-1.295.015-2.04.353-.222 2.27-2.08 2.31-2.255.005-.022.01-.105-.038-.148-.048-.043-.12-.028-.171-.017-.073.016-1.222.776-3.449 2.28-.326.222-.62.33-.882.325-.29-.006-.848-.164-1.263-.298-.509-.165-.913-.252-.877-.532.019-.145.231-.294.637-.446 2.492-1.087 4.154-1.803 4.986-2.148 2.377-.984 2.87-1.157 3.192-1.162.071-.001.229.016.331.1.086.07.11.165.122.232.012.067.027.22.015.339z"/>
</svg>